<?xml version="1.0" encoding="UTF-8" standalone="no"?><svg xmlns="http://www.w3.org/2000/svg" xmlns:xlink="http://www.w3.org/1999/xlink" contentScriptType="application/ecmascript" contentStyleType="text/css" height="188px" preserveAspectRatio="none" style="width:276px;height:188px;background:#FFFFFF;" version="1.1" viewBox="0 0 276 188" width="276px" zoomAndPan="magnify"><defs><filter height="300%" id="fq01vemqefsvn" width="300%" x="-1" y="-1"><feGaussianBlur result="blurOut" stdDeviation="2.0"/><feColorMatrix in="blurOut" result="blurOut2" type="matrix" values="0 0 0 0 0 0 0 0 0 0 0 0 0 0 0 0 0 0 .4 0"/><feOffset dx="4.0" dy="4.0" in="blurOut2" result="blurOut3"/><feBlend in="SourceGraphic" in2="blurOut3" mode="normal"/></filter></defs><g><!--MD5=[3cca84f111bad6deea36f310946c30e0]
cluster Node.js--><path d="M48.6648,19.5678 C51.493,13.3363 57.1645,13.9215 60.4767,19.0653 C62.8459,11.7322 66.7852,11.1089 72.2266,16.1476 C75.6709,10.7022 82.0024,10.7685 85.1214,16.5222 C89.5368,9.646 94.0112,9.4388 99.6708,15.0754 C102.3406,8.9415 106.8372,9.502 110.3954,14.1955 C114.6147,7.1141 119.9893,7.0904 124.6509,13.7361 C128.2432,8.9066 132.1817,7.4227 136.1164,13.3718 C139.7938,8.4459 145.7723,7.0336 148.7778,14.0823 C152.0391,6 159.1707,7.4273 163.2863,13.1868 C166.7774,8.2101 172.6136,8.337 175.123,14.2535 C179.0322,8.5397 184.9782,7.6288 188.1548,14.984 C193.6109,10.7972 197.4411,11.5057 200.3964,17.8821 C204.2549,11.1727 210.5826,10.6843 214.0517,18.2544 C218.1979,12.4852 223.2041,12.7417 225.9778,19.5553 C232.0429,21.0049 233.769,24.796 229.9944,30.0217 C236.7334,33.9856 237.456,38.2253 231.3722,43.5 C238.3468,43.964 239.3545,49.5429 236.0156,54.4004 C241.4662,59.6837 238.955,65.1545 232.2636,66.7487 C237.5651,71.5525 234.9626,76.5176 229.062,78.1854 C232.9221,83.1432 231.9837,87.3409 225.8564,89.4587 C222.6024,94.8655 217.2433,95.2104 213.2785,90.3276 C209.6691,97.5301 203.16,98.0088 199.1273,90.7416 C195.6661,96.5456 190.869,97.3758 187.2418,90.9023 C183.8641,96.2331 179.6171,97.0625 175.4931,91.7242 C172.0472,98.0093 165.7041,99.2377 161.4197,92.6402 C158.0912,98.698 153.63,97.5909 149.9207,93.0534 C146.4519,100.4809 140.9563,100.3207 135.6096,95.1939 C131.7031,101.7003 125.5164,100.7836 123.0393,93.8564 C119.0424,97.8981 114.3966,98.3305 112.0071,92.1257 C107.8384,98.8293 102.5907,98.4817 98.3934,92.1555 C94.3111,98.3691 90.5815,96.9442 86.5203,92.1328 C81.2661,99.6282 75.9735,98.888 72.0828,90.8644 C68.7522,96.433 63.7863,97.7003 60.1029,91.2151 C55.8057,97.8227 50.4269,95.5637 47.2317,90.0453 C40.2871,88.5145 39.3588,82.5458 43.5199,77.681 C36.5972,74.7486 37.168,70.0629 42.0051,65.6499 C35.0256,64.3235 32.7346,60.0163 37.2562,54.0013 C32.6689,48.1108 33.0547,44.1309 40.5097,41.3333 C37.0941,35.9827 38.0949,31.7768 45.0378,30.9383 C40.5559,25.4067 42.9204,21.8374 48.6648,19.5678 " fill="#FFFFFF" filter="url(#fq01vemqefsvn)" style="stroke:#000000;stroke-width:1.5;"/><text fill="#000000" font-family="sans-serif" font-size="14" font-weight="bold" lengthAdjust="spacing" textLength="59" x="106" y="35.5547">Node.js</text><!--MD5=[2d002b0c3d7793633e12387853c876e4]
entity node-base-template--><a href="https://github.com/Byndyusoft/node-base-template" target="_blank" title="https://github.com/Byndyusoft/node-base-template" xlink:actuate="onRequest" xlink:href="https://github.com/Byndyusoft/node-base-template" xlink:show="new" xlink:title="https://github.com/Byndyusoft/node-base-template" xlink:type="simple"><rect fill="#C0E1FB" filter="url(#fq01vemqefsvn)" height="36.2969" style="stroke:#000000;stroke-width:1.5;" width="161" x="55" y="44.5596"/><text fill="#000000" font-family="sans-serif" font-size="14" lengthAdjust="spacing" textLength="141" x="65" y="67.5547">node-base-template</text></a><!--MD5=[b4e2b47b89f02a64bc096fea456c5ffe]
entity awesome-byndyusoft-opensource--><a href="https://github.com/Byndyusoft/awesome-byndyusoft-opensource" target="_blank" title="https://github.com/Byndyusoft/awesome-byndyusoft-opensource" xlink:actuate="onRequest" xlink:href="https://github.com/Byndyusoft/awesome-byndyusoft-opensource" xlink:show="new" xlink:title="https://github.com/Byndyusoft/awesome-byndyusoft-opensource" xlink:type="simple"><rect fill="#FFFFFF" filter="url(#fq01vemqefsvn)" height="36.2969" style="stroke:#000000;stroke-width:1.5;" width="257" x="7" y="140.5596"/><text fill="#000000" font-family="sans-serif" font-size="14" lengthAdjust="spacing" textLength="237" x="17" y="163.5547">awesome-byndyusoft-opensource</text></a><!--MD5=[c19770332ba700b202e3ab636ffaa5f1]
reverse link node-base-template to awesome-byndyusoft-opensource--><path d="M135.5,101.1796 C135.5,114.7696 135.5,129.4496 135.5,140.4296 " fill="none" id="node-base-template-backto-awesome-byndyusoft-opensource" style="stroke:#A80036;stroke-width:1.0;"/><polygon fill="none" points="128.5,100.7996,135.5,80.7996,142.5,100.7996,128.5,100.7996" style="stroke:#A80036;stroke-width:1.0;"/><!--MD5=[f668bc8fe7cced36b85befc1bb445e7c]
@startuml documentation

!include common.puml

cloud "Node.js" {
  TEMPLATE("node-base-template")
}

DOCUMENTATION("awesome-byndyusoft-opensource")

' awesome-byndyusoft-opensource
EXTENDS("awesome-byndyusoft-opensource", "node-base-template")

@enduml

@startuml documentation


skinparam  {
  hyperlinkColor black
  hyperlinkUnderline false
  svgLinkTarget _blank
  topurl https://github.com/Byndyusoft
}




cloud "Node.js" {
  rectangle "node-base-template" [[/node-base-template]] #C0E1FB
}

rectangle "awesome-byndyusoft-opensource" [[/awesome-byndyusoft-opensource]] #FFFFFF

(node-base-template) <|- - (awesome-byndyusoft-opensource)

@enduml

PlantUML version 1.2022.0(Tue Jan 11 16:16:42 UTC 2022)
(GPL source distribution)
Java Runtime: OpenJDK Runtime Environment
JVM: OpenJDK 64-Bit Server VM
Default Encoding: UTF-8
Language: en
Country: null
--></g></svg>