<?xml version="1.0" encoding="UTF-8" standalone="no"?><svg xmlns="http://www.w3.org/2000/svg" xmlns:xlink="http://www.w3.org/1999/xlink" contentStyleType="text/css" height="213px" preserveAspectRatio="none" style="width:436px;height:213px;background:#FFFFFF;" version="1.1" viewBox="0 0 436 213" width="436px" zoomAndPan="magnify"><defs/><g><!--MD5=[3cca84f111bad6deea36f310946c30e0]
cluster Node.js--><g id="cluster_Node.js"><path d="M265.358,17.2625 C268.8345,11.7473 274.2743,11.9982 277.6829,17.3396 C280.2409,11.4449 285.3525,10.8027 289.7021,15.2594 C292.7716,9.7643 296.7429,8.0609 301.411,13.5565 C305.3177,8.1223 309.3083,7.2291 313.1007,13.6691 C315.8804,6.3171 320.6586,6.5518 325.7127,11.2983 C329.6184,6.3535 334.332,6 337.3031,12.2647 C342.5652,7.4693 346.9504,8.035 350.1464,14.6004 C354.4902,9.8299 358.6126,9.3186 362.1818,15.4552 C367.277,9.1749 371.2343,11.0124 375.148,16.7319 C378.7332,12.5414 383.0483,11.4291 385.9672,17.4387 C392.9301,20.6805 394.2105,24.5999 388.6163,30.4068 C395.757,32.8769 395.7682,36.8534 391.1866,41.9368 C396.8067,43.9464 398.686,48.4093 393.4117,52.6761 C399.3767,57.5952 396.4674,63.5701 390.2044,65.4091 C395.7953,70.6918 394.2566,74.5559 388.0007,77.7175 C393.3975,83.0475 392.3474,86.9049 385.3247,89.3869 C382.0507,93.8601 377.7175,94.5479 374.8013,89.0108 C372.1332,95.0637 366.8063,96.3142 362.9445,90.1714 C359.6326,95.9892 354.0118,96.7411 350.1412,90.7786 C347.1958,96.6006 341.8656,96.4941 338.4385,91.2899 C334.6522,98.8021 329.4041,97.4329 325.0011,91.9265 C322.6535,96.4096 317.835,97.2587 314.9778,92.4779 C311.0199,99.2716 304.9835,97.0587 302.0905,91.3777 C298.2433,95.7465 294.0562,97.0034 290.7541,90.7934 C287.0601,95.6513 282.0528,96.9886 278.6831,90.4499 C275.0598,95.9657 269.2686,94.8762 266.3888,89.6026 C258.1807,86.8915 257.7929,81.6678 263.3381,75.8956 C257.7727,74.0584 257.9346,69.2768 261.9397,66.0766 C255.058,64.1214 254.1818,58.2707 259.9998,54.235 C253.7403,49.5766 255.7149,42.9772 262.4182,40.6218 C257.3414,36.7567 258.3131,32.7235 263.9109,30.4203 C259.1323,25.2457 258.498,21.1572 265.358,17.2625 " style="stroke:#181818;stroke-width:1.0;fill:none;"/><text fill="#000000" font-family="sans-serif" font-size="14" font-weight="bold" lengthAdjust="spacing" textLength="59" x="295.5" y="34.6381">Node.js</text></g><!--MD5=[58c08bd8e60e7d1e2dd0f79614a280f9]
cluster Using in modern projects--><g id="cluster_Using in modern projects"><path d="M8.5,8.643 L208.5,8.643 A3.75,3.75 0 0 1 211,11.143 L218,30.9399 L218.5,30.9399 A2.5,2.5 0 0 1 221,33.4399 L221,204.143 A2.5,2.5 0 0 1 218.5,206.643 L8.5,206.643 A2.5,2.5 0 0 1 6,204.143 L6,11.143 A2.5,2.5 0 0 1 8.5,8.643 " style="stroke:#000000;stroke-width:1.5;fill:none;"/><line style="stroke:#000000;stroke-width:1.5;fill:none;" x1="6" x2="218" y1="30.9399" y2="30.9399"/><text fill="#000000" font-family="sans-serif" font-size="14" font-weight="bold" lengthAdjust="spacing" textLength="199" x="10" y="23.6381">Using in modern projects</text></g><!--MD5=[afa161eda24364d49c5769792524763a]
cluster Work in progress--><g id="cluster_Work in progress"><path d="M247.5,119.643 L385.5,119.643 A3.75,3.75 0 0 1 388,122.143 L395,141.9399 L426.5,141.9399 A2.5,2.5 0 0 1 429,144.4399 L429,204.143 A2.5,2.5 0 0 1 426.5,206.643 L247.5,206.643 A2.5,2.5 0 0 1 245,204.143 L245,122.143 A2.5,2.5 0 0 1 247.5,119.643 " style="stroke:#000000;stroke-width:1.5;fill:none;"/><line style="stroke:#000000;stroke-width:1.5;fill:none;" x1="245" x2="395" y1="141.9399" y2="141.9399"/><text fill="#000000" font-family="sans-serif" font-size="14" font-weight="bold" lengthAdjust="spacing" textLength="137" x="249" y="134.6381">Work in progress</text></g><!--MD5=[8459f29b1938ef244f851c84d44b0da4]
entity eslint-config--><g id="elem_eslint-config"><a href="https://github.com/Byndyusoft/eslint-config" target="_blank" title="https://github.com/Byndyusoft/eslint-config" xlink:actuate="onRequest" xlink:href="https://github.com/Byndyusoft/eslint-config" xlink:show="new" xlink:title="https://github.com/Byndyusoft/eslint-config" xlink:type="simple"><rect fill="#FEEEB7" height="36.2969" rx="2.5" ry="2.5" style="stroke:#181818;stroke-width:0.5;" width="104" x="273" y="43.643"/><text fill="#000000" font-family="sans-serif" font-size="14" lengthAdjust="spacing" textLength="84" x="283" y="66.6381">eslint-config</text></a></g><!--MD5=[4ce8eb1742c05b2b7d7bc75629028fe5]
entity cra-template--><g id="elem_cra-template"><a href="https://github.com/Byndyusoft/cra-template" target="_blank" title="https://github.com/Byndyusoft/cra-template" xlink:actuate="onRequest" xlink:href="https://github.com/Byndyusoft/cra-template" xlink:show="new" xlink:title="https://github.com/Byndyusoft/cra-template" xlink:type="simple"><rect fill="#C0E1FB" height="36.2969" rx="2.5" ry="2.5" style="stroke:#181818;stroke-width:0.5;" width="107" x="94.5" y="154.643"/><text fill="#000000" font-family="sans-serif" font-size="14" lengthAdjust="spacing" textLength="87" x="104.5" y="177.6381">cra-template</text></a></g><!--MD5=[41a09244e1d1ff244da839619d349c74]
entity stylelint-config--><g id="elem_stylelint-config"><a href="https://github.com/Byndyusoft/stylelint-config" target="_blank" title="https://github.com/Byndyusoft/stylelint-config" xlink:actuate="onRequest" xlink:href="https://github.com/Byndyusoft/stylelint-config" xlink:show="new" xlink:title="https://github.com/Byndyusoft/stylelint-config" xlink:type="simple"><rect fill="#FEEEB7" height="36.2969" rx="2.5" ry="2.5" style="stroke:#181818;stroke-width:0.5;" width="119" x="85.5" y="43.643"/><text fill="#000000" font-family="sans-serif" font-size="14" lengthAdjust="spacing" textLength="99" x="95.5" y="66.6381">stylelint-config</text></a></g><!--MD5=[fdde0389f82b143348d2aac88101e5ad]
entity ui-testing-template--><g id="elem_ui-testing-template"><a href="https://github.com/Byndyusoft/ui-testing-template" target="_blank" title="https://github.com/Byndyusoft/ui-testing-template" xlink:actuate="onRequest" xlink:href="https://github.com/Byndyusoft/ui-testing-template" xlink:show="new" xlink:title="https://github.com/Byndyusoft/ui-testing-template" xlink:type="simple"><rect fill="#C0E1FB" height="36.2969" rx="2.5" ry="2.5" style="stroke:#181818;stroke-width:0.5;" width="151" x="261.5" y="154.643"/><text fill="#000000" font-family="sans-serif" font-size="14" lengthAdjust="spacing" textLength="131" x="271.5" y="177.6381">ui-testing-template</text></a></g><!--MD5=[975d8ab23671437b8cab89a3a1832371]
reverse link eslint-config to cra-template--><g id="link_eslint-config_cra-template"><path d="M292.43,82.543 C277.9,91.433 260.59,102.053 245,111.643 C221.56,126.073 194.98,142.523 175.58,154.543 " fill="none" id="eslint-config-backto-cra-template" style="stroke:#181818;stroke-width:1.0;stroke-dasharray:7.0,7.0;"/><polygon fill="#181818" points="296.84,79.843,287.0724,81.1057,292.569,82.4427,291.232,87.9393,296.84,79.843" style="stroke:#181818;stroke-width:1.0;"/></g><!--MD5=[f9ceb80cc845214ff24bcc178b972c7b]
reverse link stylelint-config to cra-template--><g id="link_stylelint-config_cra-template"><path d="M145.61,84.683 C146.17,105.243 147.01,135.503 147.52,154.373 " fill="none" id="stylelint-config-backto-cra-template" style="stroke:#181818;stroke-width:1.0;stroke-dasharray:7.0,7.0;"/><polygon fill="#181818" points="145.47,79.673,141.7287,88.7835,145.6128,84.6709,149.7254,88.5551,145.47,79.673" style="stroke:#181818;stroke-width:1.0;"/></g><!--MD5=[a6c5013a0bd968572fae65877be6104e]
reverse link eslint-config to ui-testing-template--><g id="link_eslint-config_ui-testing-template"><path d="M327.43,84.683 C329.69,105.243 333.02,135.503 335.1,154.373 " fill="none" id="eslint-config-backto-ui-testing-template" style="stroke:#181818;stroke-width:1.0;stroke-dasharray:7.0,7.0;"/><polygon fill="#181818" points="326.88,79.673,323.8806,89.054,327.4228,84.6434,331.8333,88.1856,326.88,79.673" style="stroke:#181818;stroke-width:1.0;"/></g><!--MD5=[b25b88418b6677d1fbb7d1a0fcda9fa2]
@startuml frontend

!include common.puml

cloud "Node.js" {
  PACKAGE("eslint-config")
}

folder "Using in modern projects" {
  TEMPLATE("cra-template")

  PACKAGE("stylelint-config")
}

folder "Work in progress" {
  TEMPLATE("ui-testing-template")
}

' cra-template
USE("cra-template", "eslint-config")
USE("cra-template", "stylelint-config")

' ui-testing-template
USE("ui-testing-template", "eslint-config")

@enduml

@startuml frontend


skinparam  {
  hyperlinkColor black
  hyperlinkUnderline false
  svgLinkTarget _blank
  topurl https://github.com/Byndyusoft
}




cloud "Node.js" {
  rectangle "eslint-config" [[/eslint-config]] #FEEEB7
}

folder "Using in modern projects" {
  rectangle "cra-template" [[/cra-template]] #C0E1FB

  rectangle "stylelint-config" [[/stylelint-config]] #FEEEB7
}

folder "Work in progress" {
  rectangle "ui-testing-template" [[/ui-testing-template]] #C0E1FB
}

(eslint-config) <.. (cra-template)
(stylelint-config) <.. (cra-template)

(eslint-config) <.. (ui-testing-template)

@enduml

PlantUML version 1.2022.5(Sat Apr 30 10:55:52 UTC 2022)
(GPL source distribution)
Java Runtime: OpenJDK Runtime Environment
JVM: OpenJDK 64-Bit Server VM
Default Encoding: UTF-8
Language: en
Country: null
--></g></svg>