<?xml version="1.0" encoding="UTF-8" standalone="no"?><svg xmlns="http://www.w3.org/2000/svg" xmlns:xlink="http://www.w3.org/1999/xlink" contentScriptType="application/ecmascript" contentStyleType="text/css" height="213px" preserveAspectRatio="none" style="width:456px;height:213px;background:#FFFFFF;" version="1.1" viewBox="0 0 456 213" width="456px" zoomAndPan="magnify"><defs><filter height="300%" id="fxdxhd0i7xxi9" width="300%" x="-1" y="-1"><feGaussianBlur result="blurOut" stdDeviation="2.0"/><feColorMatrix in="blurOut" result="blurOut2" type="matrix" values="0 0 0 0 0 0 0 0 0 0 0 0 0 0 0 0 0 0 .4 0"/><feOffset dx="4.0" dy="4.0" in="blurOut2" result="blurOut3"/><feBlend in="SourceGraphic" in2="blurOut3" mode="normal"/></filter></defs><g><!--MD5=[3cca84f111bad6deea36f310946c30e0]
cluster Node.js--><path d="M275.358,17.2625 C278.8345,11.7473 284.2743,11.9982 287.6829,17.3396 C290.2409,11.4449 295.3525,10.8027 299.7021,15.2594 C302.7716,9.7643 306.7429,8.0609 311.411,13.5565 C315.3177,8.1223 319.3083,7.2291 323.1007,13.6691 C325.8804,6.3171 330.6586,6.5518 335.7127,11.2983 C339.6184,6.3535 344.332,6 347.3031,12.2647 C352.5652,7.4693 356.9504,8.035 360.1464,14.6004 C364.4902,9.8299 368.6126,9.3186 372.1818,15.4552 C377.277,9.1749 381.2343,11.0124 385.148,16.7319 C388.7332,12.5414 393.0483,11.4291 395.9672,17.4387 C402.9301,20.6805 404.2105,24.5999 398.6163,30.4068 C405.757,32.8769 405.7682,36.8534 401.1866,41.9368 C406.8067,43.9464 408.686,48.4093 403.4117,52.6761 C409.3767,57.5952 406.4674,63.5701 400.2044,65.4091 C405.7953,70.6918 404.2566,74.5559 398.0007,77.7175 C403.3975,83.0475 402.3474,86.9049 395.3247,89.3869 C392.0507,93.8601 387.7175,94.5479 384.8013,89.0108 C382.1332,95.0637 376.8063,96.3142 372.9445,90.1714 C369.6326,95.9892 364.0118,96.7411 360.1412,90.7786 C357.1958,96.6006 351.8656,96.4941 348.4385,91.2899 C344.6522,98.8021 339.4041,97.4329 335.0011,91.9265 C332.6535,96.4096 327.835,97.2587 324.9778,92.4779 C321.0199,99.2716 314.9835,97.0587 312.0905,91.3777 C308.2433,95.7465 304.0562,97.0034 300.7541,90.7934 C297.0601,95.6513 292.0528,96.9886 288.6831,90.4499 C285.0598,95.9657 279.2686,94.8762 276.3888,89.6026 C268.1807,86.8915 267.7929,81.6678 273.3381,75.8956 C267.7727,74.0584 267.9346,69.2768 271.9397,66.0766 C265.058,64.1214 264.1818,58.2707 269.9998,54.235 C263.7403,49.5766 265.7149,42.9772 272.4182,40.6218 C267.3414,36.7567 268.3131,32.7235 273.9109,30.4203 C269.1323,25.2457 268.498,21.1572 275.358,17.2625 " fill="#FFFFFF" filter="url(#fxdxhd0i7xxi9)" style="stroke:#000000;stroke-width:1.5;"/><text fill="#000000" font-family="sans-serif" font-size="14" font-weight="bold" lengthAdjust="spacing" textLength="59" x="305.5" y="34.6381">Node.js</text><!--MD5=[58c08bd8e60e7d1e2dd0f79614a280f9]
cluster Using in modern projects--><polygon fill="#FFFFFF" filter="url(#fxdxhd0i7xxi9)" points="16,8.643,221,8.643,228,30.9399,231,30.9399,231,206.643,16,206.643,16,8.643" style="stroke:#000000;stroke-width:1.5;"/><line style="stroke:#000000;stroke-width:1.5;" x1="16" x2="228" y1="30.9399" y2="30.9399"/><text fill="#000000" font-family="sans-serif" font-size="14" font-weight="bold" lengthAdjust="spacing" textLength="199" x="20" y="23.6381">Using in modern projects</text><!--MD5=[afa161eda24364d49c5769792524763a]
cluster Work in progress--><polygon fill="#FFFFFF" filter="url(#fxdxhd0i7xxi9)" points="255,119.643,398,119.643,405,141.9399,439,141.9399,439,206.643,255,206.643,255,119.643" style="stroke:#000000;stroke-width:1.5;"/><line style="stroke:#000000;stroke-width:1.5;" x1="255" x2="405" y1="141.9399" y2="141.9399"/><text fill="#000000" font-family="sans-serif" font-size="14" font-weight="bold" lengthAdjust="spacing" textLength="137" x="259" y="134.6381">Work in progress</text><!--MD5=[8459f29b1938ef244f851c84d44b0da4]
entity eslint-config--><a href="https://github.com/Byndyusoft/eslint-config" target="_blank" title="https://github.com/Byndyusoft/eslint-config" xlink:actuate="onRequest" xlink:href="https://github.com/Byndyusoft/eslint-config" xlink:show="new" xlink:title="https://github.com/Byndyusoft/eslint-config" xlink:type="simple"><rect fill="#FEEEB7" filter="url(#fxdxhd0i7xxi9)" height="36.2969" style="stroke:#000000;stroke-width:1.5;" width="104" x="283" y="43.643"/><text fill="#000000" font-family="sans-serif" font-size="14" lengthAdjust="spacing" textLength="84" x="293" y="66.6381">eslint-config</text></a><!--MD5=[4ce8eb1742c05b2b7d7bc75629028fe5]
entity cra-template--><a href="https://github.com/Byndyusoft/cra-template" target="_blank" title="https://github.com/Byndyusoft/cra-template" xlink:actuate="onRequest" xlink:href="https://github.com/Byndyusoft/cra-template" xlink:show="new" xlink:title="https://github.com/Byndyusoft/cra-template" xlink:type="simple"><rect fill="#C0E1FB" filter="url(#fxdxhd0i7xxi9)" height="36.2969" style="stroke:#000000;stroke-width:1.5;" width="107" x="104.5" y="154.643"/><text fill="#000000" font-family="sans-serif" font-size="14" lengthAdjust="spacing" textLength="87" x="114.5" y="177.6381">cra-template</text></a><!--MD5=[41a09244e1d1ff244da839619d349c74]
entity stylelint-config--><a href="https://github.com/Byndyusoft/stylelint-config" target="_blank" title="https://github.com/Byndyusoft/stylelint-config" xlink:actuate="onRequest" xlink:href="https://github.com/Byndyusoft/stylelint-config" xlink:show="new" xlink:title="https://github.com/Byndyusoft/stylelint-config" xlink:type="simple"><rect fill="#FEEEB7" filter="url(#fxdxhd0i7xxi9)" height="36.2969" style="stroke:#000000;stroke-width:1.5;" width="119" x="95.5" y="43.643"/><text fill="#000000" font-family="sans-serif" font-size="14" lengthAdjust="spacing" textLength="99" x="105.5" y="66.6381">stylelint-config</text></a><!--MD5=[fdde0389f82b143348d2aac88101e5ad]
entity ui-testing-template--><a href="https://github.com/Byndyusoft/ui-testing-template" target="_blank" title="https://github.com/Byndyusoft/ui-testing-template" xlink:actuate="onRequest" xlink:href="https://github.com/Byndyusoft/ui-testing-template" xlink:show="new" xlink:title="https://github.com/Byndyusoft/ui-testing-template" xlink:type="simple"><rect fill="#C0E1FB" filter="url(#fxdxhd0i7xxi9)" height="36.2969" style="stroke:#000000;stroke-width:1.5;" width="151" x="271.5" y="154.643"/><text fill="#000000" font-family="sans-serif" font-size="14" lengthAdjust="spacing" textLength="131" x="281.5" y="177.6381">ui-testing-template</text></a><!--MD5=[975d8ab23671437b8cab89a3a1832371]
reverse link eslint-config to cra-template--><path d="M302.43,82.543 C287.9,91.433 270.59,102.053 255,111.643 C231.56,126.073 204.98,142.523 185.58,154.543 " fill="none" id="eslint-config-backto-cra-template" style="stroke:#A80036;stroke-width:1.0;stroke-dasharray:7.0,7.0;"/><polygon fill="#A80036" points="306.84,79.843,297.0724,81.1057,302.569,82.4427,301.232,87.9393,306.84,79.843" style="stroke:#A80036;stroke-width:1.0;"/><!--MD5=[f9ceb80cc845214ff24bcc178b972c7b]
reverse link stylelint-config to cra-template--><path d="M155.61,84.683 C156.17,105.243 157.01,135.503 157.52,154.373 " fill="none" id="stylelint-config-backto-cra-template" style="stroke:#A80036;stroke-width:1.0;stroke-dasharray:7.0,7.0;"/><polygon fill="#A80036" points="155.47,79.673,151.7287,88.7835,155.6128,84.6709,159.7254,88.5551,155.47,79.673" style="stroke:#A80036;stroke-width:1.0;"/><!--MD5=[a6c5013a0bd968572fae65877be6104e]
reverse link eslint-config to ui-testing-template--><path d="M337.43,84.683 C339.69,105.243 343.02,135.503 345.1,154.373 " fill="none" id="eslint-config-backto-ui-testing-template" style="stroke:#A80036;stroke-width:1.0;stroke-dasharray:7.0,7.0;"/><polygon fill="#A80036" points="336.88,79.673,333.8806,89.054,337.4228,84.6434,341.8333,88.1856,336.88,79.673" style="stroke:#A80036;stroke-width:1.0;"/><!--MD5=[668ec7bfddc8156d8df505b297e08925]
@startuml frontend

!include common.puml

cloud "Node.js" {
  PACKAGE("eslint-config")
}

folder "Using in modern projects" {
  TEMPLATE("cra-template")

  PACKAGE("stylelint-config")
}

folder "Work in progress" {
  TEMPLATE("ui-testing-template")
}

' cra-template
USE("cra-template", "eslint-config")
USE("cra-template", "stylelint-config")

' ui-testing-template
USE("ui-testing-template", "eslint-config")

@enduml

@startuml frontend


skinparam  {
  hyperlinkColor black
  hyperlinkUnderline false
  svgLinkTarget _blank
  topurl https://github.com/Byndyusoft
}




cloud "Node.js" {
  rectangle "eslint-config" [[/eslint-config]] #FEEEB7
}

folder "Using in modern projects" {
  rectangle "cra-template" [[/cra-template]] #C0E1FB

  rectangle "stylelint-config" [[/stylelint-config]] #FEEEB7
}

folder "Work in progress" {
  rectangle "ui-testing-template" [[/ui-testing-template]] #C0E1FB
}

(eslint-config) <.. (cra-template)
(stylelint-config) <.. (cra-template)

(eslint-config) <.. (ui-testing-template)

@enduml

PlantUML version 1.2021.16(Wed Dec 08 17:25:22 UTC 2021)
(GPL source distribution)
Java Runtime: OpenJDK Runtime Environment
JVM: OpenJDK 64-Bit Server VM
Default Encoding: UTF-8
Language: en
Country: null
--></g></svg>