<?xml version="1.0" encoding="UTF-8" standalone="no"?><svg xmlns="http://www.w3.org/2000/svg" xmlns:xlink="http://www.w3.org/1999/xlink" contentStyleType="text/css" height="691px" preserveAspectRatio="none" style="width:1200px;height:691px;background:#FFFFFF;" version="1.1" viewBox="0 0 1200 691" width="1200px" zoomAndPan="magnify"><defs/><g><!--MD5=[58c08bd8e60e7d1e2dd0f79614a280f9]
cluster Using in modern projects--><g id="cluster_Using in modern projects"><path d="M8.5,6 L208.5,6 A3.75,3.75 0 0 1 211,8.5 L218,28.2969 L882.5,28.2969 A2.5,2.5 0 0 1 885,30.7969 L885,681.5 A2.5,2.5 0 0 1 882.5,684 L8.5,684 A2.5,2.5 0 0 1 6,681.5 L6,8.5 A2.5,2.5 0 0 1 8.5,6 " style="stroke:#000000;stroke-width:1.5;fill:none;"/><line style="stroke:#000000;stroke-width:1.5;fill:none;" x1="6" x2="218" y1="28.2969" y2="28.2969"/><text fill="#000000" font-family="sans-serif" font-size="14" font-weight="bold" lengthAdjust="spacing" textLength="199" x="10" y="20.9951">Using in modern projects</text></g><!--MD5=[afa161eda24364d49c5769792524763a]
cluster Work in progress--><g id="cluster_Work in progress"><path d="M911.5,6 L1049.5,6 A3.75,3.75 0 0 1 1052,8.5 L1059,28.2969 L1190.5,28.2969 A2.5,2.5 0 0 1 1193,30.7969 L1193,90.5 A2.5,2.5 0 0 1 1190.5,93 L911.5,93 A2.5,2.5 0 0 1 909,90.5 L909,8.5 A2.5,2.5 0 0 1 911.5,6 " style="stroke:#000000;stroke-width:1.5;fill:none;"/><line style="stroke:#000000;stroke-width:1.5;fill:none;" x1="909" x2="1059" y1="28.2969" y2="28.2969"/><text fill="#000000" font-family="sans-serif" font-size="14" font-weight="bold" lengthAdjust="spacing" textLength="137" x="913" y="20.9951">Work in progress</text></g><!--MD5=[7eae6a06f6d18ecc9c37bb90218ab1b0]
cluster Using in legacy projects--><g id="cluster_Using in legacy projects"><path d="M911.5,117 L1101.5,117 A3.75,3.75 0 0 1 1104,119.5 L1111,139.2969 L1181.5,139.2969 A2.5,2.5 0 0 1 1184,141.7969 L1184,201.5 A2.5,2.5 0 0 1 1181.5,204 L911.5,204 A2.5,2.5 0 0 1 909,201.5 L909,119.5 A2.5,2.5 0 0 1 911.5,117 " style="stroke:#000000;stroke-width:1.5;fill:none;"/><line style="stroke:#000000;stroke-width:1.5;fill:none;" x1="909" x2="1111" y1="139.2969" y2="139.2969"/><text fill="#000000" font-family="sans-serif" font-size="14" font-weight="bold" lengthAdjust="spacing" textLength="189" x="913" y="131.9951">Using in legacy projects</text></g><!--MD5=[283e7a6964b9147f8063d21f52a2ece9]
entity nest-template--><g id="elem_nest-template"><a href="https://github.com/Byndyusoft/nest-template" target="_blank" title="https://github.com/Byndyusoft/nest-template" xlink:actuate="onRequest" xlink:href="https://github.com/Byndyusoft/nest-template" xlink:show="new" xlink:title="https://github.com/Byndyusoft/nest-template" xlink:type="simple"><rect fill="#C0E1FB" height="36.2969" rx="2.5" ry="2.5" style="stroke:#181818;stroke-width:0.5;" width="117" x="525.5" y="632"/><text fill="#000000" font-family="sans-serif" font-size="14" lengthAdjust="spacing" textLength="97" x="535.5" y="654.9951">nest-template</text></a></g><!--MD5=[2d002b0c3d7793633e12387853c876e4]
entity node-base-template--><g id="elem_node-base-template"><a href="https://github.com/Byndyusoft/node-base-template" target="_blank" title="https://github.com/Byndyusoft/node-base-template" xlink:actuate="onRequest" xlink:href="https://github.com/Byndyusoft/node-base-template" xlink:show="new" xlink:title="https://github.com/Byndyusoft/node-base-template" xlink:type="simple"><rect fill="#C0E1FB" height="36.2969" rx="2.5" ry="2.5" style="stroke:#181818;stroke-width:0.5;" width="161" x="497.5" y="152"/><text fill="#000000" font-family="sans-serif" font-size="14" lengthAdjust="spacing" textLength="141" x="507.5" y="174.9951">node-base-template</text></a></g><!--MD5=[e33585e710ecb5187c74fb4c4172b8f9]
entity node-typescript-template--><g id="elem_node-typescript-template"><a href="https://github.com/Byndyusoft/node-typescript-template" target="_blank" title="https://github.com/Byndyusoft/node-typescript-template" xlink:actuate="onRequest" xlink:href="https://github.com/Byndyusoft/node-typescript-template" xlink:show="new" xlink:title="https://github.com/Byndyusoft/node-typescript-template" xlink:type="simple"><rect fill="#C0E1FB" height="36.2969" rx="2.5" ry="2.5" style="stroke:#181818;stroke-width:0.5;" width="195" x="241.5" y="344"/><text fill="#000000" font-family="sans-serif" font-size="14" lengthAdjust="spacing" textLength="175" x="251.5" y="366.9951">node-typescript-template</text></a></g><!--MD5=[c3a67cf1cb47800e2610af7945032a4e]
entity class-validator-extended--><g id="elem_class-validator-extended"><a href="https://github.com/Byndyusoft/class-validator-extended" target="_blank" title="https://github.com/Byndyusoft/class-validator-extended" xlink:actuate="onRequest" xlink:href="https://github.com/Byndyusoft/class-validator-extended" xlink:show="new" xlink:title="https://github.com/Byndyusoft/class-validator-extended" xlink:type="simple"><rect fill="#FEEEB7" height="36.2969" rx="2.5" ry="2.5" style="stroke:#181818;stroke-width:0.5;" width="188" x="59" y="536"/><text fill="#000000" font-family="sans-serif" font-size="14" lengthAdjust="spacing" textLength="168" x="69" y="558.9951">class-validator-extended</text></a></g><!--MD5=[8459f29b1938ef244f851c84d44b0da4]
entity eslint-config--><g id="elem_eslint-config"><a href="https://github.com/Byndyusoft/eslint-config" target="_blank" title="https://github.com/Byndyusoft/eslint-config" xlink:actuate="onRequest" xlink:href="https://github.com/Byndyusoft/eslint-config" xlink:show="new" xlink:title="https://github.com/Byndyusoft/eslint-config" xlink:type="simple"><rect fill="#FEEEB7" height="36.2969" rx="2.5" ry="2.5" style="stroke:#181818;stroke-width:0.5;" width="104" x="675" y="41"/><text fill="#000000" font-family="sans-serif" font-size="14" lengthAdjust="spacing" textLength="84" x="685" y="63.9951">eslint-config</text></a></g><!--MD5=[dd7e18296ea066259bbbbd36ed4d27ab]
entity nest-dynamic-module--><g id="elem_nest-dynamic-module"><a href="https://github.com/Byndyusoft/nest-dynamic-module" target="_blank" title="https://github.com/Byndyusoft/nest-dynamic-module" xlink:actuate="onRequest" xlink:href="https://github.com/Byndyusoft/nest-dynamic-module" xlink:show="new" xlink:title="https://github.com/Byndyusoft/nest-dynamic-module" xlink:type="simple"><rect fill="#FEEEB7" height="36.2969" rx="2.5" ry="2.5" style="stroke:#181818;stroke-width:0.5;" width="170" x="96" y="440"/><text fill="#000000" font-family="sans-serif" font-size="14" lengthAdjust="spacing" textLength="150" x="106" y="462.9951">nest-dynamic-module</text></a></g><!--MD5=[577aa7052490a43fc15b72efdb116d05]
entity nest-kafka--><g id="elem_nest-kafka"><a href="https://github.com/Byndyusoft/nest-kafka" target="_blank" title="https://github.com/Byndyusoft/nest-kafka" xlink:actuate="onRequest" xlink:href="https://github.com/Byndyusoft/nest-kafka" xlink:show="new" xlink:title="https://github.com/Byndyusoft/nest-kafka" xlink:type="simple"><rect fill="#FEEEB7" height="36.2969" rx="2.5" ry="2.5" style="stroke:#181818;stroke-width:0.5;" width="92" x="172" y="632"/><text fill="#000000" font-family="sans-serif" font-size="14" lengthAdjust="spacing" textLength="72" x="182" y="654.9951">nest-kafka</text></a></g><!--MD5=[e83e0cca667c70b247ace02626c88485]
entity nest-opentracing--><g id="elem_nest-opentracing"><a href="https://github.com/Byndyusoft/nest-opentracing" target="_blank" title="https://github.com/Byndyusoft/nest-opentracing" xlink:actuate="onRequest" xlink:href="https://github.com/Byndyusoft/nest-opentracing" xlink:show="new" xlink:title="https://github.com/Byndyusoft/nest-opentracing" xlink:type="simple"><rect fill="#FEEEB7" height="36.2969" rx="2.5" ry="2.5" style="stroke:#181818;stroke-width:0.5;" width="139" x="319.5" y="536"/><text fill="#000000" font-family="sans-serif" font-size="14" lengthAdjust="spacing" textLength="119" x="329.5" y="558.9951">nest-opentracing</text></a></g><!--MD5=[ac57fcd67a699c44d6530cd67fe54278]
entity nest-swagger--><g id="elem_nest-swagger"><a href="https://github.com/Byndyusoft/nest-swagger" target="_blank" title="https://github.com/Byndyusoft/nest-swagger" xlink:actuate="onRequest" xlink:href="https://github.com/Byndyusoft/nest-swagger" xlink:show="new" xlink:title="https://github.com/Byndyusoft/nest-swagger" xlink:type="simple"><rect fill="#FEEEB7" height="36.2969" rx="2.5" ry="2.5" style="stroke:#181818;stroke-width:0.5;" width="115" x="612.5" y="344"/><text fill="#000000" font-family="sans-serif" font-size="14" lengthAdjust="spacing" textLength="95" x="622.5" y="366.9951">nest-swagger</text></a></g><!--MD5=[35cc23f891908aeb86da9e0b1b94931e]
entity node-casc--><g id="elem_node-casc"><a href="https://github.com/Byndyusoft/node-casc" target="_blank" title="https://github.com/Byndyusoft/node-casc" xlink:actuate="onRequest" xlink:href="https://github.com/Byndyusoft/node-casc" xlink:show="new" xlink:title="https://github.com/Byndyusoft/node-casc" xlink:type="simple"><rect fill="#FEEEB7" height="36.2969" rx="2.5" ry="2.5" style="stroke:#181818;stroke-width:0.5;" width="93" x="404.5" y="41"/><text fill="#000000" font-family="sans-serif" font-size="14" lengthAdjust="spacing" textLength="73" x="414.5" y="63.9951">node-casc</text></a></g><!--MD5=[87ccb07f4c5983385631792b2e5485b8]
entity node-dto-factory--><g id="elem_node-dto-factory"><a href="https://github.com/Byndyusoft/node-dto-factory" target="_blank" title="https://github.com/Byndyusoft/node-dto-factory" xlink:actuate="onRequest" xlink:href="https://github.com/Byndyusoft/node-dto-factory" xlink:show="new" xlink:title="https://github.com/Byndyusoft/node-dto-factory" xlink:type="simple"><rect fill="#FEEEB7" height="36.2969" rx="2.5" ry="2.5" style="stroke:#181818;stroke-width:0.5;" width="135" x="568.5" y="536"/><text fill="#000000" font-family="sans-serif" font-size="14" lengthAdjust="spacing" textLength="115" x="578.5" y="558.9951">node-dto-factory</text></a></g><!--MD5=[f1890ba3650dd1e9c6c58fdeee4112d5]
entity node-pino-logger-factory--><g id="elem_node-pino-logger-factory"><a href="https://github.com/Byndyusoft/node-pino-logger-factory" target="_blank" title="https://github.com/Byndyusoft/node-pino-logger-factory" xlink:actuate="onRequest" xlink:href="https://github.com/Byndyusoft/node-pino-logger-factory" xlink:show="new" xlink:title="https://github.com/Byndyusoft/node-pino-logger-factory" xlink:type="simple"><rect fill="#FEEEB7" height="36.2969" rx="2.5" ry="2.5" style="stroke:#181818;stroke-width:0.5;" width="191" x="375.5" y="440"/><text fill="#000000" font-family="sans-serif" font-size="14" lengthAdjust="spacing" textLength="171" x="385.5" y="462.9951">node-pino-logger-factory</text></a></g><!--MD5=[e07c9906e938ada08c43d44f32dcecb0]
entity node-sonar-coverage-reporter--><g id="elem_node-sonar-coverage-reporter"><a href="https://github.com/Byndyusoft/node-sonar-coverage-reporter" target="_blank" title="https://github.com/Byndyusoft/node-sonar-coverage-reporter" xlink:actuate="onRequest" xlink:href="https://github.com/Byndyusoft/node-sonar-coverage-reporter" xlink:show="new" xlink:title="https://github.com/Byndyusoft/node-sonar-coverage-reporter" xlink:type="simple"><rect fill="#FEEEB7" height="36.2969" rx="2.5" ry="2.5" style="stroke:#181818;stroke-width:0.5;" width="230" x="602" y="440"/><text fill="#000000" font-family="sans-serif" font-size="14" lengthAdjust="spacing" textLength="210" x="612" y="462.9951">node-sonar-coverage-reporter</text></a></g><!--MD5=[546e424d529b5a2d8251d25f85e8dbeb]
entity tsconfig--><g id="elem_tsconfig"><a href="https://github.com/Byndyusoft/tsconfig" target="_blank" title="https://github.com/Byndyusoft/tsconfig" xlink:actuate="onRequest" xlink:href="https://github.com/Byndyusoft/tsconfig" xlink:show="new" xlink:title="https://github.com/Byndyusoft/tsconfig" xlink:type="simple"><rect fill="#FEEEB7" height="36.2969" rx="2.5" ry="2.5" style="stroke:#181818;stroke-width:0.5;" width="75" x="456.5" y="248"/><text fill="#000000" font-family="sans-serif" font-size="14" lengthAdjust="spacing" textLength="55" x="466.5" y="270.9951">tsconfig</text></a></g><!--MD5=[1a73b63e45f361ec5032703c70bfbae8]
entity node-reusable-workflows--><g id="elem_node-reusable-workflows"><a href="https://github.com/Byndyusoft/node-reusable-workflows" target="_blank" title="https://github.com/Byndyusoft/node-reusable-workflows" xlink:actuate="onRequest" xlink:href="https://github.com/Byndyusoft/node-reusable-workflows" xlink:show="new" xlink:title="https://github.com/Byndyusoft/node-reusable-workflows" xlink:type="simple"><rect fill="#D3F3BE" height="36.2969" rx="2.5" ry="2.5" style="stroke:#181818;stroke-width:0.5;" width="194" x="614" y="248"/><text fill="#000000" font-family="sans-serif" font-size="14" lengthAdjust="spacing" textLength="174" x="624" y="270.9951">node-reusable-workflows</text></a></g><!--MD5=[111acd3c24af1efa4df46754f4b9870e]
entity nodejs-integration-tests-template--><g id="elem_nodejs-integration-tests-template"><a href="https://github.com/Byndyusoft/nodejs-integration-tests-template" target="_blank" title="https://github.com/Byndyusoft/nodejs-integration-tests-template" xlink:actuate="onRequest" xlink:href="https://github.com/Byndyusoft/nodejs-integration-tests-template" xlink:show="new" xlink:title="https://github.com/Byndyusoft/nodejs-integration-tests-template" xlink:type="simple"><rect fill="#C0E1FB" height="36.2969" rx="2.5" ry="2.5" style="stroke:#181818;stroke-width:0.5;" width="252" x="925" y="41"/><text fill="#000000" font-family="sans-serif" font-size="14" lengthAdjust="spacing" textLength="232" x="935" y="63.9951">nodejs-integration-tests-template</text></a></g><!--MD5=[8b878ba066f03e9aaea93dd840a5fe79]
entity grpc-timeouts--><g id="elem_grpc-timeouts"><a href="https://github.com/Byndyusoft/grpc-timeouts" target="_blank" title="https://github.com/Byndyusoft/grpc-timeouts" xlink:actuate="onRequest" xlink:href="https://github.com/Byndyusoft/grpc-timeouts" xlink:show="new" xlink:title="https://github.com/Byndyusoft/grpc-timeouts" xlink:type="simple"><rect fill="#FEEEB7" height="36.2969" rx="2.5" ry="2.5" style="stroke:#181818;stroke-width:0.5;" width="117" x="1050.5" y="152"/><text fill="#000000" font-family="sans-serif" font-size="14" lengthAdjust="spacing" textLength="97" x="1060.5" y="174.9951">grpc-timeouts</text></a></g><!--MD5=[04e633cdd520bff997c34c564311d4b6]
entity grpc-tools--><g id="elem_grpc-tools"><a href="https://github.com/Byndyusoft/grpc-tools" target="_blank" title="https://github.com/Byndyusoft/grpc-tools" xlink:actuate="onRequest" xlink:href="https://github.com/Byndyusoft/grpc-tools" xlink:show="new" xlink:title="https://github.com/Byndyusoft/grpc-tools" xlink:type="simple"><rect fill="#FEEEB7" height="36.2969" rx="2.5" ry="2.5" style="stroke:#181818;stroke-width:0.5;" width="90" x="925" y="152"/><text fill="#000000" font-family="sans-serif" font-size="14" lengthAdjust="spacing" textLength="70" x="935" y="174.9951">grpc-tools</text></a></g><!--MD5=[60af6f576385b7e7c922744c68d23ca5]
reverse link node-typescript-template to nest-template--><g id="link_node-typescript-template_nest-template"><path d="M325.73,399.35 C319.47,423.26 316.37,454.08 332,476 C379.49,542.61 440.85,486.54 506,536 C540.18,561.95 564.85,607.27 576.49,631.9 " fill="none" id="node-typescript-template-backto-nest-template" style="stroke:#181818;stroke-width:1.0;"/><polygon fill="none" points="319.1,397.11,331.79,380.14,332.45,401.32,319.1,397.11" style="stroke:#181818;stroke-width:1.0;"/></g><!--MD5=[1814140909fe307299e140a1ee5f48a9]
reverse link class-validator-extended to nest-template--><g id="link_class-validator-extended_nest-template"><path d="M236.07,573.12 C320.9,591.62 450.44,619.87 525.2,636.18 " fill="none" id="class-validator-extended-backto-nest-template" style="stroke:#181818;stroke-width:1.0;stroke-dasharray:7.0,7.0;"/><polygon fill="#181818" points="231.05,572.02,238.9843,577.855,235.9339,573.091,240.6979,570.0407,231.05,572.02" style="stroke:#181818;stroke-width:1.0;"/></g><!--MD5=[e8bef6c7692fb5beec7a2740b783866f]
reverse link nest-dynamic-module to nest-template--><g id="link_nest-dynamic-module_nest-template"><path d="M271.25,476.9 C344.64,492.48 441.47,515.69 476,536 C518.34,560.9 554.8,607.08 572.52,632 " fill="none" id="nest-dynamic-module-backto-nest-template" style="stroke:#181818;stroke-width:1.0;stroke-dasharray:7.0,7.0;"/><polygon fill="#181818" points="266.01,475.79,273.9929,481.5583,270.9027,476.8201,275.641,473.7299,266.01,475.79" style="stroke:#181818;stroke-width:1.0;"/></g><!--MD5=[1a27dcbb20d50290157e3e40cd6958df]
reverse link nest-opentracing to nest-template--><g id="link_nest-opentracing_nest-template"><path d="M428.95,574.26 C464.13,591.22 514.88,615.68 548.62,631.95 " fill="none" id="nest-opentracing-backto-nest-template" style="stroke:#181818;stroke-width:1.0;stroke-dasharray:7.0,7.0;"/><polygon fill="#181818" points="424.31,572.02,430.6773,579.5338,428.8131,574.1929,434.154,572.3288,424.31,572.02" style="stroke:#181818;stroke-width:1.0;"/></g><!--MD5=[0b50bd23d36483a43a6510dfd6747934]
reverse link nest-swagger to nest-template--><g id="link_nest-swagger_nest-template"><path d="M732.83,374.91 C793.92,389.91 874.22,420.69 850,476 C812.72,561.16 709,609.22 642.64,632.09 " fill="none" id="nest-swagger-backto-nest-template" style="stroke:#181818;stroke-width:1.0;stroke-dasharray:7.0,7.0;"/><polygon fill="#181818" points="727.72,373.68,735.5313,379.6786,732.5806,374.8523,737.407,371.9016,727.72,373.68" style="stroke:#181818;stroke-width:1.0;"/></g><!--MD5=[d73f99edc5d82aa7368c0d35f9a1c924]
reverse link node-dto-factory to nest-template--><g id="link_node-dto-factory_nest-template"><path d="M623.94,576.8 C614.67,593.56 602.03,616.4 593.48,631.87 " fill="none" id="node-dto-factory-backto-nest-template" style="stroke:#181818;stroke-width:1.0;stroke-dasharray:7.0,7.0;"/><polygon fill="#181818" points="626.46,572.24,618.6074,578.1845,624.0427,576.6168,625.6104,582.0521,626.46,572.24" style="stroke:#181818;stroke-width:1.0;"/></g><!--MD5=[761013d0ba9c4976b93a2d19d7282801]
reverse link node-pino-logger-factory to nest-template--><g id="link_node-pino-logger-factory_nest-template"><path d="M570.67,477.18 C632.07,490.64 702.5,510.95 721,536 C751.22,576.93 685.57,612.04 635.08,631.83 " fill="none" id="node-pino-logger-factory-backto-nest-template" style="stroke:#181818;stroke-width:1.0;stroke-dasharray:7.0,7.0;"/><polygon fill="#181818" points="565.51,476.06,573.4443,481.895,570.3939,477.131,575.1579,474.0807,565.51,476.06" style="stroke:#181818;stroke-width:1.0;"/></g><!--MD5=[38a31f414fb9841925ec0062abc10520]
reverse link node-sonar-coverage-reporter to nest-template--><g id="link_node-sonar-coverage-reporter_nest-template"><path d="M727.9,480.69 C738.31,504.76 750.1,543.92 733,572 C713.39,604.21 675.49,623.53 642.83,634.77 " fill="none" id="node-sonar-coverage-reporter-backto-nest-template" style="stroke:#181818;stroke-width:1.0;stroke-dasharray:7.0,7.0;"/><polygon fill="#181818" points="725.84,476.08,725.8343,485.9289,727.868,480.6502,733.1467,482.684,725.84,476.08" style="stroke:#181818;stroke-width:1.0;"/></g><!--MD5=[a72ce7aa56c2a27a957da9d1b4ee018e]
reverse link eslint-config to node-base-template--><g id="link_eslint-config_node-base-template"><path d="M699.34,80.23 C671.23,100.79 628.16,132.3 601.61,151.73 " fill="none" id="eslint-config-backto-node-base-template" style="stroke:#181818;stroke-width:1.0;stroke-dasharray:7.0,7.0;"/><polygon fill="#181818" points="703.72,77.03,694.0943,79.1148,699.6844,79.9819,698.8173,85.5719,703.72,77.03" style="stroke:#181818;stroke-width:1.0;"/></g><!--MD5=[90c1c6db8e84631bb342a3f23d513b2d]
reverse link node-base-template to node-typescript-template--><g id="link_node-base-template_node-typescript-template"><path d="M521.07,196.97 C494.77,210.33 463.93,228 439,248 C402.83,277.02 368.87,319.93 351.36,343.65 " fill="none" id="node-base-template-backto-node-typescript-template" style="stroke:#181818;stroke-width:1.0;"/><polygon fill="none" points="518.22,190.57,539.26,188.04,524.39,203.14,518.22,190.57" style="stroke:#181818;stroke-width:1.0;"/></g><!--MD5=[f353fdd271ed6d0779f8b429da053462]
reverse link tsconfig to node-typescript-template--><g id="link_tsconfig_node-typescript-template"><path d="M461.55,286.68 C433.62,303.62 393.72,327.81 367.12,343.95 " fill="none" id="tsconfig-backto-node-typescript-template" style="stroke:#181818;stroke-width:1.0;stroke-dasharray:7.0,7.0;"/><polygon fill="#181818" points="465.93,284.02,456.1594,285.2589,461.6527,286.6093,460.3022,292.1026,465.93,284.02" style="stroke:#181818;stroke-width:1.0;"/></g><!--MD5=[7c571e108e7c042a3ee8c84d37c77b62]
reverse link node-typescript-template to class-validator-extended--><g id="link_node-typescript-template_class-validator-extended"><path d="M221.55,383.45 C160.98,396.64 96.05,415.85 78,440 C53.4,472.91 97.18,513.46 127.56,535.94 " fill="none" id="node-typescript-template-backto-class-validator-extended" style="stroke:#181818;stroke-width:1.0;"/><polygon fill="none" points="220.42,376.54,241.43,379.3,223.28,390.24,220.42,376.54" style="stroke:#181818;stroke-width:1.0;"/></g><!--MD5=[ab55f0adb652bca2eef3a31fe3bddc91]
reverse link node-typescript-template to nest-dynamic-module--><g id="link_node-typescript-template_nest-dynamic-module"><path d="M292.94,390.4 C266.02,406.42 232.88,426.14 209.67,439.95 " fill="none" id="node-typescript-template-backto-nest-dynamic-module" style="stroke:#181818;stroke-width:1.0;"/><polygon fill="none" points="289.62,384.23,310.39,380.02,296.78,396.26,289.62,384.23" style="stroke:#181818;stroke-width:1.0;"/></g><!--MD5=[38130b5d9cf09328bd38ed3f5c2b4c52]
reverse link node-typescript-template to nest-kafka--><g id="link_node-typescript-template_nest-kafka"><path d="M221.44,368.78 C166.27,377.56 103.83,397.21 63,440 C21.94,483.03 8.39,522.26 41,572 C69.75,615.86 129.5,634.87 171.6,643.02 " fill="none" id="node-typescript-template-backto-nest-kafka" style="stroke:#181818;stroke-width:1.0;"/><polygon fill="none" points="220.61,361.83,241.38,366.02,222.53,375.7,220.61,361.83" style="stroke:#181818;stroke-width:1.0;"/></g><!--MD5=[25ff23ba043d8af4857fb677c87c3fb2]
reverse link class-validator-extended to nest-kafka--><g id="link_class-validator-extended_nest-kafka"><path d="M167.78,576.37 C179.39,593.17 195.37,616.27 206.15,631.87 " fill="none" id="class-validator-extended-backto-nest-kafka" style="stroke:#181818;stroke-width:1.0;stroke-dasharray:7.0,7.0;"/><polygon fill="#181818" points="164.92,572.24,166.7454,581.9182,167.7623,576.3535,173.327,577.3705,164.92,572.24" style="stroke:#181818;stroke-width:1.0;"/></g><!--MD5=[e4a6368a73a683d4ffff66f9aa1a0b02]
reverse link nest-dynamic-module to nest-kafka--><g id="link_nest-dynamic-module_nest-kafka"><path d="M214.02,479.15 C232.78,492.65 254.56,512.26 265,536 C279.8,569.65 253.13,609.42 234.29,631.68 " fill="none" id="nest-dynamic-module-backto-nest-kafka" style="stroke:#181818;stroke-width:1.0;stroke-dasharray:7.0,7.0;"/><polygon fill="#181818" points="209.82,476.2,214.8973,484.6393,213.9155,479.0683,219.4865,478.0865,209.82,476.2" style="stroke:#181818;stroke-width:1.0;"/></g><!--MD5=[1d0b9da77c0de607872b289b6ee8ffd8]
reverse link nest-opentracing to nest-kafka--><g id="link_nest-opentracing_nest-kafka"><path d="M353.58,574.47 C322.75,591.42 278.49,615.75 249.02,631.95 " fill="none" id="nest-opentracing-backto-nest-kafka" style="stroke:#181818;stroke-width:1.0;stroke-dasharray:7.0,7.0;"/><polygon fill="#181818" points="358.03,572.02,348.2158,572.845,353.6471,574.4263,352.0658,579.8576,358.03,572.02" style="stroke:#181818;stroke-width:1.0;"/></g><!--MD5=[4db7c291d57fe8228e82a5fdd421eff5]
reverse link nest-dynamic-module to nest-opentracing--><g id="link_nest-dynamic-module_nest-opentracing"><path d="M223.62,478.26 C261.14,495.22 315.27,519.68 351.26,535.95 " fill="none" id="nest-dynamic-module-backto-nest-opentracing" style="stroke:#181818;stroke-width:1.0;stroke-dasharray:7.0,7.0;"/><polygon fill="#181818" points="218.67,476.02,225.2272,483.3687,223.2272,478.0772,228.5187,476.0771,218.67,476.02" style="stroke:#181818;stroke-width:1.0;"/></g><!--MD5=[5f9402cf09927ac6d5e0f43fd41613a5]
reverse link node-base-template to nest-swagger--><g id="link_node-base-template_nest-swagger"><path d="M578.81,208.31 C580.59,231.19 585.28,260.5 597,284 C609,308.07 631.06,329.73 647.8,343.9 " fill="none" id="node-base-template-backto-nest-swagger" style="stroke:#181818;stroke-width:1.0;"/><polygon fill="none" points="571.8,208.34,577.83,188.03,585.78,207.67,571.8,208.34" style="stroke:#181818;stroke-width:1.0;"/></g><!--MD5=[7cdf62598015fee5af99b3fd32fd5ae2]
reverse link node-typescript-template to node-dto-factory--><g id="link_node-typescript-template_node-dto-factory"><path d="M335.67,400.4 C335.59,424.8 339.75,455.75 358,476 C372.29,491.86 490.86,520.75 568.47,538.28 " fill="none" id="node-typescript-template-backto-node-dto-factory" style="stroke:#181818;stroke-width:1.0;"/><polygon fill="none" points="328.68,399.97,336.65,380.34,342.67,400.66,328.68,399.97" style="stroke:#181818;stroke-width:1.0;"/></g><!--MD5=[4d700ab4ae6f9096efd7cbc929033538]
reverse link node-typescript-template to node-pino-logger-factory--><g id="link_node-typescript-template_node-pino-logger-factory"><path d="M379.38,391.76 C401.43,407.46 427.99,426.37 446.83,439.79 " fill="none" id="node-typescript-template-backto-node-pino-logger-factory" style="stroke:#181818;stroke-width:1.0;"/><polygon fill="none" points="375.14,397.33,362.9,380.02,383.26,385.92,375.14,397.33" style="stroke:#181818;stroke-width:1.0;"/></g><!--MD5=[618577bb0cf85fae65face33a2f37444]
reverse link node-typescript-template to node-sonar-coverage-reporter--><g id="link_node-typescript-template_node-sonar-coverage-reporter"><path d="M427.12,384.91 C494.6,401.69 586.35,424.51 648.42,439.95 " fill="none" id="node-typescript-template-backto-node-sonar-coverage-reporter" style="stroke:#181818;stroke-width:1.0;"/><polygon fill="none" points="425.17,391.64,407.45,380.02,428.55,378.06,425.17,391.64" style="stroke:#181818;stroke-width:1.0;"/></g><!--MD5=[dd364a1fd8a8628dba86d6649e200f4e]
reverse link node-base-template to tsconfig--><g id="link_node-base-template_tsconfig"><path d="M549.15,203.29 C535.77,218.26 520.41,235.44 509.31,247.87 " fill="none" id="node-base-template-backto-tsconfig" style="stroke:#181818;stroke-width:1.0;"/><polygon fill="none" points="544.05,198.49,562.59,188.24,554.49,207.82,544.05,198.49" style="stroke:#181818;stroke-width:1.0;"/></g><!--MD5=[7b7a18e2a7343327632a8177cec7270c]
reverse link eslint-config to grpc-timeouts--><g id="link_eslint-config_grpc-timeouts"><path d="M784.33,75.35 C819.95,84.27 866.83,94.93 909,101 C936.33,104.94 1007.22,99.11 1033,109 C1056.86,118.15 1079.18,137.59 1093.37,151.87 " fill="none" id="eslint-config-backto-grpc-timeouts" style="stroke:#181818;stroke-width:1.0;stroke-dasharray:7.0,7.0;"/><polygon fill="#181818" points="779.16,74.04,786.9001,80.1303,784.0065,75.2695,788.8673,72.3759,779.16,74.04" style="stroke:#181818;stroke-width:1.0;"/></g><!--MD5=[5f75cc2acf3a8bb77e0371c6bc406f20]
reverse link node-base-template to node-reusable-workflows--><g id="link_node-base-template_node-reusable-workflows"><path d="M618.69,199.76 C640.91,215.46 667.67,234.37 686.64,247.79 " fill="none" id="node-base-template-backto-node-reusable-workflows" style="stroke:#181818;stroke-width:1.0;"/><polygon fill="none" points="614.38,205.28,602.09,188.02,622.46,193.85,614.38,205.28" style="stroke:#181818;stroke-width:1.0;"/></g><!--MD5=[73a4deb1dbd4d8309c63965390e8f9f0]
@startuml nodejs

!include common.puml

folder "Using in modern projects" {
  TEMPLATE("nest-template")
  TEMPLATE("node-base-template")
  TEMPLATE("node-typescript-template")

  PACKAGE("class-validator-extended")
  PACKAGE("eslint-config")
  PACKAGE("nest-dynamic-module")
  PACKAGE("nest-kafka")
  PACKAGE("nest-opentracing")
  PACKAGE("nest-swagger")
  PACKAGE("node-casc")
  PACKAGE("node-dto-factory")
  PACKAGE("node-pino-logger-factory")
  PACKAGE("node-sonar-coverage-reporter")
  PACKAGE("tsconfig")

  INFRA("node-reusable-workflows")
}

folder "Work in progress" {
  TEMPLATE("nodejs-integration-tests-template")
}

folder "Using in legacy projects" {
  PACKAGE("grpc-timeouts")
  PACKAGE("grpc-tools")
}

' nest-template
EXTENDS("nest-template", "node-typescript-template")
USE("nest-template", "class-validator-extended")
USE("nest-template", "nest-dynamic-module")
USE("nest-template", "nest-opentracing")
USE("nest-template", "nest-swagger")
USE("nest-template", "node-dto-factory")
USE("nest-template", "node-pino-logger-factory")
USE("nest-template", "node-sonar-coverage-reporter")

' node-base-template
USE("node-base-template", "eslint-config")

' node-typescript-template
EXTENDS("node-typescript-template", "node-base-template")
USE("node-typescript-template", "tsconfig")

' class-validator-extended
EXTENDS("class-validator-extended", "node-typescript-template")

' nest-dynamic-module
EXTENDS("nest-dynamic-module", "node-typescript-template")

' nest-kafka
EXTENDS("nest-kafka", "node-typescript-template")
USE("nest-kafka", "class-validator-extended")
USE("nest-kafka", "nest-dynamic-module")
USE("nest-kafka", "nest-opentracing")

' nest-opentracing
USE("nest-opentracing", "nest-dynamic-module")

' nest-swagger
EXTENDS("nest-swagger", "node-base-template")

' node-dto-factory
EXTENDS("node-dto-factory", "node-typescript-template")

' node-pino-logger-factory
EXTENDS("node-pino-logger-factory", "node-typescript-template")

' node-sonar-coverage-reporter
EXTENDS("node-sonar-coverage-reporter", "node-typescript-template")

' tsconfig
EXTENDS("tsconfig", "node-base-template")

' grpc-timeouts
USE("grpc-timeouts", "eslint-config")

' node-reusable-workflows
EXTENDS("node-reusable-workflows", "node-base-template")

@enduml

@startuml nodejs


skinparam  {
  hyperlinkColor black
  hyperlinkUnderline false
  svgLinkTarget _blank
  topurl https://github.com/Byndyusoft
}




folder "Using in modern projects" {
  rectangle "nest-template" [[/nest-template]] #C0E1FB
  rectangle "node-base-template" [[/node-base-template]] #C0E1FB
  rectangle "node-typescript-template" [[/node-typescript-template]] #C0E1FB

  rectangle "class-validator-extended" [[/class-validator-extended]] #FEEEB7
  rectangle "eslint-config" [[/eslint-config]] #FEEEB7
  rectangle "nest-dynamic-module" [[/nest-dynamic-module]] #FEEEB7
  rectangle "nest-kafka" [[/nest-kafka]] #FEEEB7
  rectangle "nest-opentracing" [[/nest-opentracing]] #FEEEB7
  rectangle "nest-swagger" [[/nest-swagger]] #FEEEB7
  rectangle "node-casc" [[/node-casc]] #FEEEB7
  rectangle "node-dto-factory" [[/node-dto-factory]] #FEEEB7
  rectangle "node-pino-logger-factory" [[/node-pino-logger-factory]] #FEEEB7
  rectangle "node-sonar-coverage-reporter" [[/node-sonar-coverage-reporter]] #FEEEB7
  rectangle "tsconfig" [[/tsconfig]] #FEEEB7

  rectangle "node-reusable-workflows" [[/node-reusable-workflows]] #D3F3BE
}

folder "Work in progress" {
  rectangle "nodejs-integration-tests-template" [[/nodejs-integration-tests-template]] #C0E1FB
}

folder "Using in legacy projects" {
  rectangle "grpc-timeouts" [[/grpc-timeouts]] #FEEEB7
  rectangle "grpc-tools" [[/grpc-tools]] #FEEEB7
}

(node-typescript-template) <|- - (nest-template)
(class-validator-extended) <.. (nest-template)
(nest-dynamic-module) <.. (nest-template)
(nest-opentracing) <.. (nest-template)
(nest-swagger) <.. (nest-template)
(node-dto-factory) <.. (nest-template)
(node-pino-logger-factory) <.. (nest-template)
(node-sonar-coverage-reporter) <.. (nest-template)

(eslint-config) <.. (node-base-template)

(node-base-template) <|- - (node-typescript-template)
(tsconfig) <.. (node-typescript-template)

(node-typescript-template) <|- - (class-validator-extended)

(node-typescript-template) <|- - (nest-dynamic-module)

(node-typescript-template) <|- - (nest-kafka)
(class-validator-extended) <.. (nest-kafka)
(nest-dynamic-module) <.. (nest-kafka)
(nest-opentracing) <.. (nest-kafka)

(nest-dynamic-module) <.. (nest-opentracing)

(node-base-template) <|- - (nest-swagger)

(node-typescript-template) <|- - (node-dto-factory)

(node-typescript-template) <|- - (node-pino-logger-factory)

(node-typescript-template) <|- - (node-sonar-coverage-reporter)

(node-base-template) <|- - (tsconfig)

(eslint-config) <.. (grpc-timeouts)

(node-base-template) <|- - (node-reusable-workflows)

@enduml

PlantUML version 1.2022.5(Sat Apr 30 10:55:52 UTC 2022)
(GPL source distribution)
Java Runtime: OpenJDK Runtime Environment
JVM: OpenJDK 64-Bit Server VM
Default Encoding: UTF-8
Language: en
Country: null
--></g></svg>