<?xml version="1.0" encoding="UTF-8" standalone="no"?><svg xmlns="http://www.w3.org/2000/svg" xmlns:xlink="http://www.w3.org/1999/xlink" contentStyleType="text/css" height="691px" preserveAspectRatio="none" style="width:1307px;height:691px;background:#FFFFFF;" version="1.1" viewBox="0 0 1307 691" width="1307px" zoomAndPan="magnify"><defs/><g><!--MD5=[58c08bd8e60e7d1e2dd0f79614a280f9]
cluster Using in modern projects--><g id="cluster_Using in modern projects"><path d="M8.5,6 L208.5,6 A3.75,3.75 0 0 1 211,8.5 L218,28.2969 L989.5,28.2969 A2.5,2.5 0 0 1 992,30.7969 L992,681.5 A2.5,2.5 0 0 1 989.5,684 L8.5,684 A2.5,2.5 0 0 1 6,681.5 L6,8.5 A2.5,2.5 0 0 1 8.5,6 " style="stroke:#000000;stroke-width:1.5;fill:none;"/><line style="stroke:#000000;stroke-width:1.5;fill:none;" x1="6" x2="218" y1="28.2969" y2="28.2969"/><text fill="#000000" font-family="sans-serif" font-size="14" font-weight="bold" lengthAdjust="spacing" textLength="199" x="10" y="20.9951">Using in modern projects</text></g><!--MD5=[afa161eda24364d49c5769792524763a]
cluster Work in progress--><g id="cluster_Work in progress"><path d="M1018.5,6 L1156.5,6 A3.75,3.75 0 0 1 1159,8.5 L1166,28.2969 L1297.5,28.2969 A2.5,2.5 0 0 1 1300,30.7969 L1300,90.5 A2.5,2.5 0 0 1 1297.5,93 L1018.5,93 A2.5,2.5 0 0 1 1016,90.5 L1016,8.5 A2.5,2.5 0 0 1 1018.5,6 " style="stroke:#000000;stroke-width:1.5;fill:none;"/><line style="stroke:#000000;stroke-width:1.5;fill:none;" x1="1016" x2="1166" y1="28.2969" y2="28.2969"/><text fill="#000000" font-family="sans-serif" font-size="14" font-weight="bold" lengthAdjust="spacing" textLength="137" x="1020" y="20.9951">Work in progress</text></g><!--MD5=[7eae6a06f6d18ecc9c37bb90218ab1b0]
cluster Using in legacy projects--><g id="cluster_Using in legacy projects"><path d="M1018.5,117 L1208.5,117 A3.75,3.75 0 0 1 1211,119.5 L1218,139.2969 L1288.5,139.2969 A2.5,2.5 0 0 1 1291,141.7969 L1291,201.5 A2.5,2.5 0 0 1 1288.5,204 L1018.5,204 A2.5,2.5 0 0 1 1016,201.5 L1016,119.5 A2.5,2.5 0 0 1 1018.5,117 " style="stroke:#000000;stroke-width:1.5;fill:none;"/><line style="stroke:#000000;stroke-width:1.5;fill:none;" x1="1016" x2="1218" y1="139.2969" y2="139.2969"/><text fill="#000000" font-family="sans-serif" font-size="14" font-weight="bold" lengthAdjust="spacing" textLength="189" x="1020" y="131.9951">Using in legacy projects</text></g><!--MD5=[283e7a6964b9147f8063d21f52a2ece9]
entity nest-template--><g id="elem_nest-template"><a href="https://github.com/Byndyusoft/nest-template" target="_blank" title="https://github.com/Byndyusoft/nest-template" xlink:actuate="onRequest" xlink:href="https://github.com/Byndyusoft/nest-template" xlink:show="new" xlink:title="https://github.com/Byndyusoft/nest-template" xlink:type="simple"><rect fill="#C0E1FB" height="36.2969" rx="2.5" ry="2.5" style="stroke:#181818;stroke-width:0.5;" width="117" x="634.5" y="632"/><text fill="#000000" font-family="sans-serif" font-size="14" lengthAdjust="spacing" textLength="97" x="644.5" y="654.9951">nest-template</text></a></g><!--MD5=[2d002b0c3d7793633e12387853c876e4]
entity node-base-template--><g id="elem_node-base-template"><a href="https://github.com/Byndyusoft/node-base-template" target="_blank" title="https://github.com/Byndyusoft/node-base-template" xlink:actuate="onRequest" xlink:href="https://github.com/Byndyusoft/node-base-template" xlink:show="new" xlink:title="https://github.com/Byndyusoft/node-base-template" xlink:type="simple"><rect fill="#C0E1FB" height="36.2969" rx="2.5" ry="2.5" style="stroke:#181818;stroke-width:0.5;" width="161" x="654.5" y="152"/><text fill="#000000" font-family="sans-serif" font-size="14" lengthAdjust="spacing" textLength="141" x="664.5" y="174.9951">node-base-template</text></a></g><!--MD5=[e33585e710ecb5187c74fb4c4172b8f9]
entity node-typescript-template--><g id="elem_node-typescript-template"><a href="https://github.com/Byndyusoft/node-typescript-template" target="_blank" title="https://github.com/Byndyusoft/node-typescript-template" xlink:actuate="onRequest" xlink:href="https://github.com/Byndyusoft/node-typescript-template" xlink:show="new" xlink:title="https://github.com/Byndyusoft/node-typescript-template" xlink:type="simple"><rect fill="#C0E1FB" height="36.2969" rx="2.5" ry="2.5" style="stroke:#181818;stroke-width:0.5;" width="195" x="436.5" y="344"/><text fill="#000000" font-family="sans-serif" font-size="14" lengthAdjust="spacing" textLength="175" x="446.5" y="366.9951">node-typescript-template</text></a></g><!--MD5=[c3a67cf1cb47800e2610af7945032a4e]
entity class-validator-extended--><g id="elem_class-validator-extended"><a href="https://github.com/Byndyusoft/class-validator-extended" target="_blank" title="https://github.com/Byndyusoft/class-validator-extended" xlink:actuate="onRequest" xlink:href="https://github.com/Byndyusoft/class-validator-extended" xlink:show="new" xlink:title="https://github.com/Byndyusoft/class-validator-extended" xlink:type="simple"><rect fill="#FEEEB7" height="36.2969" rx="2.5" ry="2.5" style="stroke:#181818;stroke-width:0.5;" width="188" x="59" y="536"/><text fill="#000000" font-family="sans-serif" font-size="14" lengthAdjust="spacing" textLength="168" x="69" y="558.9951">class-validator-extended</text></a></g><!--MD5=[8459f29b1938ef244f851c84d44b0da4]
entity eslint-config--><g id="elem_eslint-config"><a href="https://github.com/Byndyusoft/eslint-config" target="_blank" title="https://github.com/Byndyusoft/eslint-config" xlink:actuate="onRequest" xlink:href="https://github.com/Byndyusoft/eslint-config" xlink:show="new" xlink:title="https://github.com/Byndyusoft/eslint-config" xlink:type="simple"><rect fill="#FEEEB7" height="36.2969" rx="2.5" ry="2.5" style="stroke:#181818;stroke-width:0.5;" width="104" x="794" y="41"/><text fill="#000000" font-family="sans-serif" font-size="14" lengthAdjust="spacing" textLength="84" x="804" y="63.9951">eslint-config</text></a></g><!--MD5=[dd7e18296ea066259bbbbd36ed4d27ab]
entity nest-dynamic-module--><g id="elem_nest-dynamic-module"><a href="https://github.com/Byndyusoft/nest-dynamic-module" target="_blank" title="https://github.com/Byndyusoft/nest-dynamic-module" xlink:actuate="onRequest" xlink:href="https://github.com/Byndyusoft/nest-dynamic-module" xlink:show="new" xlink:title="https://github.com/Byndyusoft/nest-dynamic-module" xlink:type="simple"><rect fill="#FEEEB7" height="36.2969" rx="2.5" ry="2.5" style="stroke:#181818;stroke-width:0.5;" width="170" x="166" y="440"/><text fill="#000000" font-family="sans-serif" font-size="14" lengthAdjust="spacing" textLength="150" x="176" y="462.9951">nest-dynamic-module</text></a></g><!--MD5=[7a532b047bacefa20242386dd425e8bd]
entity nest-http-client--><g id="elem_nest-http-client"><a href="https://github.com/Byndyusoft/nest-http-client" target="_blank" title="https://github.com/Byndyusoft/nest-http-client" xlink:actuate="onRequest" xlink:href="https://github.com/Byndyusoft/nest-http-client" xlink:show="new" xlink:title="https://github.com/Byndyusoft/nest-http-client" xlink:type="simple"><rect fill="#FEEEB7" height="36.2969" rx="2.5" ry="2.5" style="stroke:#181818;stroke-width:0.5;" width="126" x="531" y="536"/><text fill="#000000" font-family="sans-serif" font-size="14" lengthAdjust="spacing" textLength="106" x="541" y="558.9951">nest-http-client</text></a></g><!--MD5=[577aa7052490a43fc15b72efdb116d05]
entity nest-kafka--><g id="elem_nest-kafka"><a href="https://github.com/Byndyusoft/nest-kafka" target="_blank" title="https://github.com/Byndyusoft/nest-kafka" xlink:actuate="onRequest" xlink:href="https://github.com/Byndyusoft/nest-kafka" xlink:show="new" xlink:title="https://github.com/Byndyusoft/nest-kafka" xlink:type="simple"><rect fill="#FEEEB7" height="36.2969" rx="2.5" ry="2.5" style="stroke:#181818;stroke-width:0.5;" width="92" x="172" y="632"/><text fill="#000000" font-family="sans-serif" font-size="14" lengthAdjust="spacing" textLength="72" x="182" y="654.9951">nest-kafka</text></a></g><!--MD5=[e83e0cca667c70b247ace02626c88485]
entity nest-opentracing--><g id="elem_nest-opentracing"><a href="https://github.com/Byndyusoft/nest-opentracing" target="_blank" title="https://github.com/Byndyusoft/nest-opentracing" xlink:actuate="onRequest" xlink:href="https://github.com/Byndyusoft/nest-opentracing" xlink:show="new" xlink:title="https://github.com/Byndyusoft/nest-opentracing" xlink:type="simple"><rect fill="#FEEEB7" height="36.2969" rx="2.5" ry="2.5" style="stroke:#181818;stroke-width:0.5;" width="139" x="319.5" y="536"/><text fill="#000000" font-family="sans-serif" font-size="14" lengthAdjust="spacing" textLength="119" x="329.5" y="558.9951">nest-opentracing</text></a></g><!--MD5=[ac57fcd67a699c44d6530cd67fe54278]
entity nest-swagger--><g id="elem_nest-swagger"><a href="https://github.com/Byndyusoft/nest-swagger" target="_blank" title="https://github.com/Byndyusoft/nest-swagger" xlink:actuate="onRequest" xlink:href="https://github.com/Byndyusoft/nest-swagger" xlink:show="new" xlink:title="https://github.com/Byndyusoft/nest-swagger" xlink:type="simple"><rect fill="#FEEEB7" height="36.2969" rx="2.5" ry="2.5" style="stroke:#181818;stroke-width:0.5;" width="115" x="768.5" y="344"/><text fill="#000000" font-family="sans-serif" font-size="14" lengthAdjust="spacing" textLength="95" x="778.5" y="366.9951">nest-swagger</text></a></g><!--MD5=[35cc23f891908aeb86da9e0b1b94931e]
entity node-casc--><g id="elem_node-casc"><a href="https://github.com/Byndyusoft/node-casc" target="_blank" title="https://github.com/Byndyusoft/node-casc" xlink:actuate="onRequest" xlink:href="https://github.com/Byndyusoft/node-casc" xlink:show="new" xlink:title="https://github.com/Byndyusoft/node-casc" xlink:type="simple"><rect fill="#FEEEB7" height="36.2969" rx="2.5" ry="2.5" style="stroke:#181818;stroke-width:0.5;" width="93" x="431.5" y="41"/><text fill="#000000" font-family="sans-serif" font-size="14" lengthAdjust="spacing" textLength="73" x="441.5" y="63.9951">node-casc</text></a></g><!--MD5=[87ccb07f4c5983385631792b2e5485b8]
entity node-dto-factory--><g id="elem_node-dto-factory"><a href="https://github.com/Byndyusoft/node-dto-factory" target="_blank" title="https://github.com/Byndyusoft/node-dto-factory" xlink:actuate="onRequest" xlink:href="https://github.com/Byndyusoft/node-dto-factory" xlink:show="new" xlink:title="https://github.com/Byndyusoft/node-dto-factory" xlink:type="simple"><rect fill="#FEEEB7" height="36.2969" rx="2.5" ry="2.5" style="stroke:#181818;stroke-width:0.5;" width="135" x="766.5" y="536"/><text fill="#000000" font-family="sans-serif" font-size="14" lengthAdjust="spacing" textLength="115" x="776.5" y="558.9951">node-dto-factory</text></a></g><!--MD5=[f1890ba3650dd1e9c6c58fdeee4112d5]
entity node-pino-logger-factory--><g id="elem_node-pino-logger-factory"><a href="https://github.com/Byndyusoft/node-pino-logger-factory" target="_blank" title="https://github.com/Byndyusoft/node-pino-logger-factory" xlink:actuate="onRequest" xlink:href="https://github.com/Byndyusoft/node-pino-logger-factory" xlink:show="new" xlink:title="https://github.com/Byndyusoft/node-pino-logger-factory" xlink:type="simple"><rect fill="#FEEEB7" height="36.2969" rx="2.5" ry="2.5" style="stroke:#181818;stroke-width:0.5;" width="191" x="747.5" y="440"/><text fill="#000000" font-family="sans-serif" font-size="14" lengthAdjust="spacing" textLength="171" x="757.5" y="462.9951">node-pino-logger-factory</text></a></g><!--MD5=[e07c9906e938ada08c43d44f32dcecb0]
entity node-sonar-coverage-reporter--><g id="elem_node-sonar-coverage-reporter"><a href="https://github.com/Byndyusoft/node-sonar-coverage-reporter" target="_blank" title="https://github.com/Byndyusoft/node-sonar-coverage-reporter" xlink:actuate="onRequest" xlink:href="https://github.com/Byndyusoft/node-sonar-coverage-reporter" xlink:show="new" xlink:title="https://github.com/Byndyusoft/node-sonar-coverage-reporter" xlink:type="simple"><rect fill="#FEEEB7" height="36.2969" rx="2.5" ry="2.5" style="stroke:#181818;stroke-width:0.5;" width="230" x="408" y="440"/><text fill="#000000" font-family="sans-serif" font-size="14" lengthAdjust="spacing" textLength="210" x="418" y="462.9951">node-sonar-coverage-reporter</text></a></g><!--MD5=[546e424d529b5a2d8251d25f85e8dbeb]
entity tsconfig--><g id="elem_tsconfig"><a href="https://github.com/Byndyusoft/tsconfig" target="_blank" title="https://github.com/Byndyusoft/tsconfig" xlink:actuate="onRequest" xlink:href="https://github.com/Byndyusoft/tsconfig" xlink:show="new" xlink:title="https://github.com/Byndyusoft/tsconfig" xlink:type="simple"><rect fill="#FEEEB7" height="36.2969" rx="2.5" ry="2.5" style="stroke:#181818;stroke-width:0.5;" width="75" x="613.5" y="248"/><text fill="#000000" font-family="sans-serif" font-size="14" lengthAdjust="spacing" textLength="55" x="623.5" y="270.9951">tsconfig</text></a></g><!--MD5=[1a73b63e45f361ec5032703c70bfbae8]
entity node-reusable-workflows--><g id="elem_node-reusable-workflows"><a href="https://github.com/Byndyusoft/node-reusable-workflows" target="_blank" title="https://github.com/Byndyusoft/node-reusable-workflows" xlink:actuate="onRequest" xlink:href="https://github.com/Byndyusoft/node-reusable-workflows" xlink:show="new" xlink:title="https://github.com/Byndyusoft/node-reusable-workflows" xlink:type="simple"><rect fill="#D3F3BE" height="36.2969" rx="2.5" ry="2.5" style="stroke:#181818;stroke-width:0.5;" width="194" x="771" y="248"/><text fill="#000000" font-family="sans-serif" font-size="14" lengthAdjust="spacing" textLength="174" x="781" y="270.9951">node-reusable-workflows</text></a></g><!--MD5=[111acd3c24af1efa4df46754f4b9870e]
entity nodejs-integration-tests-template--><g id="elem_nodejs-integration-tests-template"><a href="https://github.com/Byndyusoft/nodejs-integration-tests-template" target="_blank" title="https://github.com/Byndyusoft/nodejs-integration-tests-template" xlink:actuate="onRequest" xlink:href="https://github.com/Byndyusoft/nodejs-integration-tests-template" xlink:show="new" xlink:title="https://github.com/Byndyusoft/nodejs-integration-tests-template" xlink:type="simple"><rect fill="#C0E1FB" height="36.2969" rx="2.5" ry="2.5" style="stroke:#181818;stroke-width:0.5;" width="252" x="1032" y="41"/><text fill="#000000" font-family="sans-serif" font-size="14" lengthAdjust="spacing" textLength="232" x="1042" y="63.9951">nodejs-integration-tests-template</text></a></g><!--MD5=[8b878ba066f03e9aaea93dd840a5fe79]
entity grpc-timeouts--><g id="elem_grpc-timeouts"><a href="https://github.com/Byndyusoft/grpc-timeouts" target="_blank" title="https://github.com/Byndyusoft/grpc-timeouts" xlink:actuate="onRequest" xlink:href="https://github.com/Byndyusoft/grpc-timeouts" xlink:show="new" xlink:title="https://github.com/Byndyusoft/grpc-timeouts" xlink:type="simple"><rect fill="#FEEEB7" height="36.2969" rx="2.5" ry="2.5" style="stroke:#181818;stroke-width:0.5;" width="117" x="1157.5" y="152"/><text fill="#000000" font-family="sans-serif" font-size="14" lengthAdjust="spacing" textLength="97" x="1167.5" y="174.9951">grpc-timeouts</text></a></g><!--MD5=[04e633cdd520bff997c34c564311d4b6]
entity grpc-tools--><g id="elem_grpc-tools"><a href="https://github.com/Byndyusoft/grpc-tools" target="_blank" title="https://github.com/Byndyusoft/grpc-tools" xlink:actuate="onRequest" xlink:href="https://github.com/Byndyusoft/grpc-tools" xlink:show="new" xlink:title="https://github.com/Byndyusoft/grpc-tools" xlink:type="simple"><rect fill="#FEEEB7" height="36.2969" rx="2.5" ry="2.5" style="stroke:#181818;stroke-width:0.5;" width="90" x="1032" y="152"/><text fill="#000000" font-family="sans-serif" font-size="14" lengthAdjust="spacing" textLength="70" x="1042" y="174.9951">grpc-tools</text></a></g><!--MD5=[60af6f576385b7e7c922744c68d23ca5]
reverse link node-typescript-template to nest-template--><g id="link_node-typescript-template_nest-template"><path d="M592.42,389.49 C614.85,402.09 639.09,419.03 656,440 C702.38,497.51 698.81,593.14 695.08,631.9 " fill="none" id="node-typescript-template-backto-nest-template" style="stroke:#181818;stroke-width:1.0;"/><polygon fill="none" points="589.06,395.63,574.61,380.13,595.57,383.24,589.06,395.63" style="stroke:#181818;stroke-width:1.0;"/></g><!--MD5=[1814140909fe307299e140a1ee5f48a9]
reverse link class-validator-extended to nest-template--><g id="link_class-validator-extended_nest-template"><path d="M252.01,572.23 C363.89,591.71 542.34,622.77 634.17,638.76 " fill="none" id="class-validator-extended-backto-nest-template" style="stroke:#181818;stroke-width:1.0;stroke-dasharray:7.0,7.0;"/><polygon fill="#181818" points="247.06,571.37,255.2415,576.8529,251.9861,572.2267,256.6123,568.9712,247.06,571.37" style="stroke:#181818;stroke-width:1.0;"/></g><!--MD5=[e8bef6c7692fb5beec7a2740b783866f]
reverse link nest-dynamic-module to nest-template--><g id="link_nest-dynamic-module_nest-template"><path d="M331.03,477.38 C375.73,489.81 431.27,508.94 476,536 C495.91,548.04 494.57,559.21 514,572 C553.56,598.05 603.38,618.63 640.41,631.94 " fill="none" id="nest-dynamic-module-backto-nest-template" style="stroke:#181818;stroke-width:1.0;stroke-dasharray:7.0,7.0;"/><polygon fill="#181818" points="326.19,476.05,333.8064,482.2943,331.0108,477.3764,335.9287,474.5809,326.19,476.05" style="stroke:#181818;stroke-width:1.0;"/></g><!--MD5=[e73d2bb2467b511233ecc80d5b65f770]
reverse link nest-http-client to nest-template--><g id="link_nest-http-client_nest-template"><path d="M616.06,575.94 C633.79,592.78 658.39,616.14 674.96,631.87 " fill="none" id="nest-http-client-backto-nest-template" style="stroke:#181818;stroke-width:1.0;stroke-dasharray:7.0,7.0;"/><polygon fill="#181818" points="612.16,572.24,615.9356,581.3364,615.7871,575.6815,621.442,575.533,612.16,572.24" style="stroke:#181818;stroke-width:1.0;"/></g><!--MD5=[1a27dcbb20d50290157e3e40cd6958df]
reverse link nest-opentracing to nest-template--><g id="link_nest-opentracing_nest-template"><path d="M448.95,573.54 C503.87,590.52 584.49,615.45 637.84,631.95 " fill="none" id="nest-opentracing-backto-nest-template" style="stroke:#181818;stroke-width:1.0;stroke-dasharray:7.0,7.0;"/><polygon fill="#181818" points="444.05,572.02,451.4539,578.5148,448.8239,573.5065,453.8323,570.8765,444.05,572.02" style="stroke:#181818;stroke-width:1.0;"/></g><!--MD5=[0b50bd23d36483a43a6510dfd6747934]
reverse link nest-swagger to nest-template--><g id="link_nest-swagger_nest-template"><path d="M884.17,382.08 C911.08,394.15 940.47,412.75 956,440 C975.33,473.91 946.89,555.16 931,572 C884.28,621.51 805.55,639.26 751.52,645.58 " fill="none" id="nest-swagger-backto-nest-template" style="stroke:#181818;stroke-width:1.0;stroke-dasharray:7.0,7.0;"/><polygon fill="#181818" points="879.53,380.05,886.1721,387.322,884.1108,382.0541,889.3787,379.9927,879.53,380.05" style="stroke:#181818;stroke-width:1.0;"/></g><!--MD5=[d73f99edc5d82aa7368c0d35f9a1c924]
reverse link node-dto-factory to nest-template--><g id="link_node-dto-factory_nest-template"><path d="M804.18,574.88 C778.87,591.75 742.92,615.72 718.82,631.79 " fill="none" id="node-dto-factory-backto-nest-template" style="stroke:#181818;stroke-width:1.0;stroke-dasharray:7.0,7.0;"/><polygon fill="#181818" points="808.47,572.02,798.7667,573.7072,804.3163,574.8034,803.2201,580.353,808.47,572.02" style="stroke:#181818;stroke-width:1.0;"/></g><!--MD5=[761013d0ba9c4976b93a2d19d7282801]
reverse link node-pino-logger-factory to nest-template--><g id="link_node-pino-logger-factory_nest-template"><path d="M873.13,479.31 C903.18,502.12 941.82,540.12 919,572 C881.18,624.84 804.95,641.84 751.52,647.08 " fill="none" id="node-pino-logger-factory-backto-nest-template" style="stroke:#181818;stroke-width:1.0;stroke-dasharray:7.0,7.0;"/><polygon fill="#181818" points="868.77,476.06,873.6043,484.6407,872.782,479.044,878.3787,478.2216,868.77,476.06" style="stroke:#181818;stroke-width:1.0;"/></g><!--MD5=[38a31f414fb9841925ec0062abc10520]
reverse link node-sonar-coverage-reporter to nest-template--><g id="link_node-sonar-coverage-reporter_nest-template"><path d="M591.3,477.93 C621.52,489.77 654.74,508.2 675,536 C695.83,564.57 696.4,608.04 694.81,631.88 " fill="none" id="node-sonar-coverage-reporter-backto-nest-template" style="stroke:#181818;stroke-width:1.0;stroke-dasharray:7.0,7.0;"/><polygon fill="#181818" points="586.48,476.09,593.4585,483.0399,591.1504,477.8753,596.315,475.5673,586.48,476.09" style="stroke:#181818;stroke-width:1.0;"/></g><!--MD5=[a72ce7aa56c2a27a957da9d1b4ee018e]
reverse link eslint-config to node-base-template--><g id="link_eslint-config_node-base-template"><path d="M824.88,80.74 C803.93,101.31 772.21,132.46 752.59,151.73 " fill="none" id="eslint-config-backto-node-base-template" style="stroke:#181818;stroke-width:1.0;stroke-dasharray:7.0,7.0;"/><polygon fill="#181818" points="828.66,77.03,819.4393,80.491,825.096,80.5368,825.0502,86.1935,828.66,77.03" style="stroke:#181818;stroke-width:1.0;"/></g><!--MD5=[90c1c6db8e84631bb342a3f23d513b2d]
reverse link node-base-template to node-typescript-template--><g id="link_node-base-template_node-typescript-template"><path d="M671.63,196.69 C645.94,209.35 617.36,226.56 596,248 C567.89,276.22 548.9,319.83 539.93,343.78 " fill="none" id="node-base-template-backto-node-typescript-template" style="stroke:#181818;stroke-width:1.0;"/><polygon fill="none" points="669.02,190.18,690.11,188.09,674.93,202.87,669.02,190.18" style="stroke:#181818;stroke-width:1.0;"/></g><!--MD5=[f353fdd271ed6d0779f8b429da053462]
reverse link tsconfig to node-typescript-template--><g id="link_tsconfig_node-typescript-template"><path d="M625.74,287.3 C604.76,304.15 575.26,327.85 555.43,343.79 " fill="none" id="tsconfig-backto-node-typescript-template" style="stroke:#181818;stroke-width:1.0;stroke-dasharray:7.0,7.0;"/><polygon fill="#181818" points="629.81,284.02,620.2868,286.5315,625.9098,287.1487,625.2927,292.7718,629.81,284.02" style="stroke:#181818;stroke-width:1.0;"/></g><!--MD5=[7c571e108e7c042a3ee8c84d37c77b62]
reverse link node-typescript-template to class-validator-extended--><g id="link_node-typescript-template_class-validator-extended"><path d="M416.38,370.42 C315.59,379.52 181.53,399.12 148,440 C125.71,467.18 137.03,511.6 145.86,535.86 " fill="none" id="node-typescript-template-backto-class-validator-extended" style="stroke:#181818;stroke-width:1.0;"/><polygon fill="none" points="415.85,363.44,436.37,368.71,417.04,377.39,415.85,363.44" style="stroke:#181818;stroke-width:1.0;"/></g><!--MD5=[ab55f0adb652bca2eef3a31fe3bddc91]
reverse link node-typescript-template to nest-dynamic-module--><g id="link_node-typescript-template_nest-dynamic-module"><path d="M463.75,386.33 C413.68,402.96 347.51,424.94 302.35,439.95 " fill="none" id="node-typescript-template-backto-nest-dynamic-module" style="stroke:#181818;stroke-width:1.0;"/><polygon fill="none" points="461.56,379.68,482.75,380.02,465.98,392.97,461.56,379.68" style="stroke:#181818;stroke-width:1.0;"/></g><!--MD5=[45130cf523703b2904b2cd1c9a8ce226]
reverse link node-typescript-template to nest-http-client--><g id="link_node-typescript-template_nest-http-client"><path d="M460.87,387.47 C413.53,407.48 365.14,438.53 391,476 C407.49,499.89 477.6,522.9 530.85,537.45 " fill="none" id="node-typescript-template-backto-nest-http-client" style="stroke:#181818;stroke-width:1.0;"/><polygon fill="none" points="458.32,380.95,479.5,380.1,463.48,393.97,458.32,380.95" style="stroke:#181818;stroke-width:1.0;"/></g><!--MD5=[8cd9ae34e14cc6727cf886613a388161]
reverse link nest-dynamic-module to nest-http-client--><g id="link_nest-dynamic-module_nest-http-client"><path d="M318.27,477.44 C380.24,494.42 471.45,519.42 531.77,535.95 " fill="none" id="nest-dynamic-module-backto-nest-http-client" style="stroke:#181818;stroke-width:1.0;stroke-dasharray:7.0,7.0;"/><polygon fill="#181818" points="313.11,476.02,320.7216,482.2701,317.9298,477.3501,322.8498,474.5583,313.11,476.02" style="stroke:#181818;stroke-width:1.0;"/></g><!--MD5=[38130b5d9cf09328bd38ed3f5c2b4c52]
reverse link node-typescript-template to nest-kafka--><g id="link_node-typescript-template_nest-kafka"><path d="M416.13,365.64 C331.24,372.07 216.55,390.36 128,440 C77.77,468.16 61.72,482.28 41,536 C35.24,550.93 32.23,558.62 41,572 C69.75,615.86 129.5,634.87 171.6,643.02 " fill="none" id="node-typescript-template-backto-nest-kafka" style="stroke:#181818;stroke-width:1.0;"/><polygon fill="none" points="415.79,358.65,436.21,364.3,416.73,372.61,415.79,358.65" style="stroke:#181818;stroke-width:1.0;"/></g><!--MD5=[25ff23ba043d8af4857fb677c87c3fb2]
reverse link class-validator-extended to nest-kafka--><g id="link_class-validator-extended_nest-kafka"><path d="M167.78,576.37 C179.39,593.17 195.37,616.27 206.15,631.87 " fill="none" id="class-validator-extended-backto-nest-kafka" style="stroke:#181818;stroke-width:1.0;stroke-dasharray:7.0,7.0;"/><polygon fill="#181818" points="164.92,572.24,166.7454,581.9182,167.7623,576.3535,173.327,577.3705,164.92,572.24" style="stroke:#181818;stroke-width:1.0;"/></g><!--MD5=[e4a6368a73a683d4ffff66f9aa1a0b02]
reverse link nest-dynamic-module to nest-kafka--><g id="link_nest-dynamic-module_nest-kafka"><path d="M258.81,481.15 C265.78,504.22 273.65,541.22 265,572 C258.64,594.62 243.6,617.16 232.23,631.96 " fill="none" id="nest-dynamic-module-backto-nest-kafka" style="stroke:#181818;stroke-width:1.0;stroke-dasharray:7.0,7.0;"/><polygon fill="#181818" points="257.25,476.16,256.1249,485.9444,258.7454,480.9311,263.7587,483.5517,257.25,476.16" style="stroke:#181818;stroke-width:1.0;"/></g><!--MD5=[1d0b9da77c0de607872b289b6ee8ffd8]
reverse link nest-opentracing to nest-kafka--><g id="link_nest-opentracing_nest-kafka"><path d="M353.58,574.47 C322.75,591.42 278.49,615.75 249.02,631.95 " fill="none" id="nest-opentracing-backto-nest-kafka" style="stroke:#181818;stroke-width:1.0;stroke-dasharray:7.0,7.0;"/><polygon fill="#181818" points="358.03,572.02,348.2158,572.845,353.6471,574.4263,352.0658,579.8576,358.03,572.02" style="stroke:#181818;stroke-width:1.0;"/></g><!--MD5=[4db7c291d57fe8228e82a5fdd421eff5]
reverse link nest-dynamic-module to nest-opentracing--><g id="link_nest-dynamic-module_nest-opentracing"><path d="M280.18,478.88 C304.96,495.75 340.14,519.72 363.73,535.79 " fill="none" id="nest-dynamic-module-backto-nest-opentracing" style="stroke:#181818;stroke-width:1.0;stroke-dasharray:7.0,7.0;"/><polygon fill="#181818" points="275.99,476.02,281.1736,484.3944,280.1214,478.8362,285.6796,477.7841,275.99,476.02" style="stroke:#181818;stroke-width:1.0;"/></g><!--MD5=[5f9402cf09927ac6d5e0f43fd41613a5]
reverse link node-base-template to nest-swagger--><g id="link_node-base-template_nest-swagger"><path d="M735.86,208.28 C737.67,231.15 742.36,260.46 754,284 C765.84,307.95 787.6,329.63 804.1,343.83 " fill="none" id="node-base-template-backto-nest-swagger" style="stroke:#181818;stroke-width:1.0;"/><polygon fill="none" points="728.86,208.33,734.86,188.01,742.84,207.64,728.86,208.33" style="stroke:#181818;stroke-width:1.0;"/></g><!--MD5=[7cdf62598015fee5af99b3fd32fd5ae2]
reverse link node-typescript-template to node-dto-factory--><g id="link_node-typescript-template_node-dto-factory"><path d="M589.62,388.83 C618.2,402.82 653.19,421.09 683,440 C705.22,454.09 708.98,460.17 730,476 C757.64,496.81 789.66,520.45 810.79,535.98 " fill="none" id="node-typescript-template-backto-node-dto-factory" style="stroke:#181818;stroke-width:1.0;"/><polygon fill="none" points="586.42,395.06,571.44,380.08,592.5,382.45,586.42,395.06" style="stroke:#181818;stroke-width:1.0;"/></g><!--MD5=[4d700ab4ae6f9096efd7cbc929033538]
reverse link node-typescript-template to node-pino-logger-factory--><g id="link_node-typescript-template_node-pino-logger-factory"><path d="M609.26,385.89 C664.09,402.57 737.18,424.81 786.94,439.95 " fill="none" id="node-typescript-template-backto-node-pino-logger-factory" style="stroke:#181818;stroke-width:1.0;"/><polygon fill="none" points="607.05,392.54,589.96,380.02,611.13,379.15,607.05,392.54" style="stroke:#181818;stroke-width:1.0;"/></g><!--MD5=[618577bb0cf85fae65face33a2f37444]
reverse link node-typescript-template to node-sonar-coverage-reporter--><g id="link_node-typescript-template_node-sonar-coverage-reporter"><path d="M529.65,400.13 C528.05,413.86 526.3,428.76 525,439.87 " fill="none" id="node-typescript-template-backto-node-sonar-coverage-reporter" style="stroke:#181818;stroke-width:1.0;"/><polygon fill="none" points="522.71,399.29,531.98,380.24,536.61,400.92,522.71,399.29" style="stroke:#181818;stroke-width:1.0;"/></g><!--MD5=[dd364a1fd8a8628dba86d6649e200f4e]
reverse link node-base-template to tsconfig--><g id="link_node-base-template_tsconfig"><path d="M706.15,203.29 C692.77,218.26 677.41,235.44 666.31,247.87 " fill="none" id="node-base-template-backto-tsconfig" style="stroke:#181818;stroke-width:1.0;"/><polygon fill="none" points="701.05,198.49,719.59,188.24,711.49,207.82,701.05,198.49" style="stroke:#181818;stroke-width:1.0;"/></g><!--MD5=[7b7a18e2a7343327632a8177cec7270c]
reverse link eslint-config to grpc-timeouts--><g id="link_eslint-config_grpc-timeouts"><path d="M903.54,76.49 C936.24,85.2 978.11,95.25 1016,101 C1043.3,105.14 1114.22,99.11 1140,109 C1163.86,118.15 1186.18,137.59 1200.37,151.87 " fill="none" id="eslint-config-backto-grpc-timeouts" style="stroke:#181818;stroke-width:1.0;stroke-dasharray:7.0,7.0;"/><polygon fill="#181818" points="898.37,75.11,906.0206,81.3122,903.1981,76.4099,908.1004,73.5873,898.37,75.11" style="stroke:#181818;stroke-width:1.0;"/></g><!--MD5=[5f75cc2acf3a8bb77e0371c6bc406f20]
reverse link node-base-template to node-reusable-workflows--><g id="link_node-base-template_node-reusable-workflows"><path d="M775.69,199.76 C797.91,215.46 824.67,234.37 843.64,247.79 " fill="none" id="node-base-template-backto-node-reusable-workflows" style="stroke:#181818;stroke-width:1.0;"/><polygon fill="none" points="771.38,205.28,759.09,188.02,779.46,193.85,771.38,205.28" style="stroke:#181818;stroke-width:1.0;"/></g><!--MD5=[08012e337e751667b0e317462af53bb8]
@startuml nodejs

!include common.puml

folder "Using in modern projects" {
  TEMPLATE("nest-template")
  TEMPLATE("node-base-template")
  TEMPLATE("node-typescript-template")

  PACKAGE("class-validator-extended")
  PACKAGE("eslint-config")
  PACKAGE("nest-dynamic-module")
  PACKAGE("nest-http-client")
  PACKAGE("nest-kafka")
  PACKAGE("nest-opentracing")
  PACKAGE("nest-swagger")
  PACKAGE("node-casc")
  PACKAGE("node-dto-factory")
  PACKAGE("node-pino-logger-factory")
  PACKAGE("node-sonar-coverage-reporter")
  PACKAGE("tsconfig")

  INFRA("node-reusable-workflows")
}

folder "Work in progress" {
  TEMPLATE("nodejs-integration-tests-template")
}

folder "Using in legacy projects" {
  PACKAGE("grpc-timeouts")
  PACKAGE("grpc-tools")
}

' nest-template
EXTENDS("nest-template", "node-typescript-template")
USE("nest-template", "class-validator-extended")
USE("nest-template", "nest-dynamic-module")
USE("nest-template", "nest-http-client")
USE("nest-template", "nest-opentracing")
USE("nest-template", "nest-swagger")
USE("nest-template", "node-dto-factory")
USE("nest-template", "node-pino-logger-factory")
USE("nest-template", "node-sonar-coverage-reporter")

' node-base-template
USE("node-base-template", "eslint-config")

' node-typescript-template
EXTENDS("node-typescript-template", "node-base-template")
USE("node-typescript-template", "tsconfig")

' class-validator-extended
EXTENDS("class-validator-extended", "node-typescript-template")

' nest-dynamic-module
EXTENDS("nest-dynamic-module", "node-typescript-template")

' nest-http-client
EXTENDS("nest-http-client", "node-typescript-template")
USE("nest-http-client", "nest-dynamic-module")

' nest-kafka
EXTENDS("nest-kafka", "node-typescript-template")
USE("nest-kafka", "class-validator-extended")
USE("nest-kafka", "nest-dynamic-module")
USE("nest-kafka", "nest-opentracing")

' nest-opentracing
USE("nest-opentracing", "nest-dynamic-module")

' nest-swagger
EXTENDS("nest-swagger", "node-base-template")

' node-dto-factory
EXTENDS("node-dto-factory", "node-typescript-template")

' node-pino-logger-factory
EXTENDS("node-pino-logger-factory", "node-typescript-template")

' node-sonar-coverage-reporter
EXTENDS("node-sonar-coverage-reporter", "node-typescript-template")

' tsconfig
EXTENDS("tsconfig", "node-base-template")

' grpc-timeouts
USE("grpc-timeouts", "eslint-config")

' node-reusable-workflows
EXTENDS("node-reusable-workflows", "node-base-template")

@enduml

@startuml nodejs


skinparam  {
  hyperlinkColor black
  hyperlinkUnderline false
  svgLinkTarget _blank
  topurl https://github.com/Byndyusoft
}




folder "Using in modern projects" {
  rectangle "nest-template" [[/nest-template]] #C0E1FB
  rectangle "node-base-template" [[/node-base-template]] #C0E1FB
  rectangle "node-typescript-template" [[/node-typescript-template]] #C0E1FB

  rectangle "class-validator-extended" [[/class-validator-extended]] #FEEEB7
  rectangle "eslint-config" [[/eslint-config]] #FEEEB7
  rectangle "nest-dynamic-module" [[/nest-dynamic-module]] #FEEEB7
  rectangle "nest-http-client" [[/nest-http-client]] #FEEEB7
  rectangle "nest-kafka" [[/nest-kafka]] #FEEEB7
  rectangle "nest-opentracing" [[/nest-opentracing]] #FEEEB7
  rectangle "nest-swagger" [[/nest-swagger]] #FEEEB7
  rectangle "node-casc" [[/node-casc]] #FEEEB7
  rectangle "node-dto-factory" [[/node-dto-factory]] #FEEEB7
  rectangle "node-pino-logger-factory" [[/node-pino-logger-factory]] #FEEEB7
  rectangle "node-sonar-coverage-reporter" [[/node-sonar-coverage-reporter]] #FEEEB7
  rectangle "tsconfig" [[/tsconfig]] #FEEEB7

  rectangle "node-reusable-workflows" [[/node-reusable-workflows]] #D3F3BE
}

folder "Work in progress" {
  rectangle "nodejs-integration-tests-template" [[/nodejs-integration-tests-template]] #C0E1FB
}

folder "Using in legacy projects" {
  rectangle "grpc-timeouts" [[/grpc-timeouts]] #FEEEB7
  rectangle "grpc-tools" [[/grpc-tools]] #FEEEB7
}

(node-typescript-template) <|- - (nest-template)
(class-validator-extended) <.. (nest-template)
(nest-dynamic-module) <.. (nest-template)
(nest-http-client) <.. (nest-template)
(nest-opentracing) <.. (nest-template)
(nest-swagger) <.. (nest-template)
(node-dto-factory) <.. (nest-template)
(node-pino-logger-factory) <.. (nest-template)
(node-sonar-coverage-reporter) <.. (nest-template)

(eslint-config) <.. (node-base-template)

(node-base-template) <|- - (node-typescript-template)
(tsconfig) <.. (node-typescript-template)

(node-typescript-template) <|- - (class-validator-extended)

(node-typescript-template) <|- - (nest-dynamic-module)

(node-typescript-template) <|- - (nest-http-client)
(nest-dynamic-module) <.. (nest-http-client)

(node-typescript-template) <|- - (nest-kafka)
(class-validator-extended) <.. (nest-kafka)
(nest-dynamic-module) <.. (nest-kafka)
(nest-opentracing) <.. (nest-kafka)

(nest-dynamic-module) <.. (nest-opentracing)

(node-base-template) <|- - (nest-swagger)

(node-typescript-template) <|- - (node-dto-factory)

(node-typescript-template) <|- - (node-pino-logger-factory)

(node-typescript-template) <|- - (node-sonar-coverage-reporter)

(node-base-template) <|- - (tsconfig)

(eslint-config) <.. (grpc-timeouts)

(node-base-template) <|- - (node-reusable-workflows)

@enduml

PlantUML version 1.2022.5(Sat Apr 30 10:55:52 UTC 2022)
(GPL source distribution)
Java Runtime: OpenJDK Runtime Environment
JVM: OpenJDK 64-Bit Server VM
Default Encoding: UTF-8
Language: en
Country: null
--></g></svg>