<?xml version="1.0" encoding="UTF-8" standalone="no"?><svg xmlns="http://www.w3.org/2000/svg" xmlns:xlink="http://www.w3.org/1999/xlink" contentStyleType="text/css" height="691px" preserveAspectRatio="none" style="width:1407px;height:691px;background:#FFFFFF;" version="1.1" viewBox="0 0 1407 691" width="1407px" zoomAndPan="magnify"><defs/><g><!--cluster Using in modern projects--><g id="cluster_Using in modern projects"><path d="M8.5,6 L208.5,6 A3.75,3.75 0 0 1 211,8.5 L218,28.2969 L1089.5,28.2969 A2.5,2.5 0 0 1 1092,30.7969 L1092,681.5 A2.5,2.5 0 0 1 1089.5,684 L8.5,684 A2.5,2.5 0 0 1 6,681.5 L6,8.5 A2.5,2.5 0 0 1 8.5,6 " fill="none" style="stroke:#000000;stroke-width:1.5;"/><line style="stroke:#000000;stroke-width:1.5;" x1="6" x2="218" y1="28.2969" y2="28.2969"/><text fill="#000000" font-family="sans-serif" font-size="14" font-weight="bold" lengthAdjust="spacing" textLength="199" x="10" y="20.9951">Using in modern projects</text></g><!--cluster Work in progress--><g id="cluster_Work in progress"><path d="M1118.5,6 L1256.5,6 A3.75,3.75 0 0 1 1259,8.5 L1266,28.2969 L1397.5,28.2969 A2.5,2.5 0 0 1 1400,30.7969 L1400,90.5 A2.5,2.5 0 0 1 1397.5,93 L1118.5,93 A2.5,2.5 0 0 1 1116,90.5 L1116,8.5 A2.5,2.5 0 0 1 1118.5,6 " fill="none" style="stroke:#000000;stroke-width:1.5;"/><line style="stroke:#000000;stroke-width:1.5;" x1="1116" x2="1266" y1="28.2969" y2="28.2969"/><text fill="#000000" font-family="sans-serif" font-size="14" font-weight="bold" lengthAdjust="spacing" textLength="137" x="1120" y="20.9951">Work in progress</text></g><!--cluster Using in legacy projects--><g id="cluster_Using in legacy projects"><path d="M1118.5,117 L1308.5,117 A3.75,3.75 0 0 1 1311,119.5 L1318,139.2969 L1388.5,139.2969 A2.5,2.5 0 0 1 1391,141.7969 L1391,201.5 A2.5,2.5 0 0 1 1388.5,204 L1118.5,204 A2.5,2.5 0 0 1 1116,201.5 L1116,119.5 A2.5,2.5 0 0 1 1118.5,117 " fill="none" style="stroke:#000000;stroke-width:1.5;"/><line style="stroke:#000000;stroke-width:1.5;" x1="1116" x2="1318" y1="139.2969" y2="139.2969"/><text fill="#000000" font-family="sans-serif" font-size="14" font-weight="bold" lengthAdjust="spacing" textLength="189" x="1120" y="131.9951">Using in legacy projects</text></g><!--entity nest-template--><g id="elem_nest-template"><a href="https://github.com/Byndyusoft/nest-template" target="_blank" title="https://github.com/Byndyusoft/nest-template" xlink:actuate="onRequest" xlink:href="https://github.com/Byndyusoft/nest-template" xlink:show="new" xlink:title="https://github.com/Byndyusoft/nest-template" xlink:type="simple"><rect fill="#C0E1FB" height="36.2969" rx="2.5" ry="2.5" style="stroke:#181818;stroke-width:0.5;" width="117" x="643.5" y="632"/><text fill="#000000" font-family="sans-serif" font-size="14" lengthAdjust="spacing" textLength="97" x="653.5" y="654.9951">nest-template</text></a></g><!--entity node-base-template--><g id="elem_node-base-template"><a href="https://github.com/Byndyusoft/node-base-template" target="_blank" title="https://github.com/Byndyusoft/node-base-template" xlink:actuate="onRequest" xlink:href="https://github.com/Byndyusoft/node-base-template" xlink:show="new" xlink:title="https://github.com/Byndyusoft/node-base-template" xlink:type="simple"><rect fill="#C0E1FB" height="36.2969" rx="2.5" ry="2.5" style="stroke:#181818;stroke-width:0.5;" width="161" x="295.5" y="152"/><text fill="#000000" font-family="sans-serif" font-size="14" lengthAdjust="spacing" textLength="141" x="305.5" y="174.9951">node-base-template</text></a></g><!--entity node-typescript-template--><g id="elem_node-typescript-template"><a href="https://github.com/Byndyusoft/node-typescript-template" target="_blank" title="https://github.com/Byndyusoft/node-typescript-template" xlink:actuate="onRequest" xlink:href="https://github.com/Byndyusoft/node-typescript-template" xlink:show="new" xlink:title="https://github.com/Byndyusoft/node-typescript-template" xlink:type="simple"><rect fill="#C0E1FB" height="36.2969" rx="2.5" ry="2.5" style="stroke:#181818;stroke-width:0.5;" width="195" x="278.5" y="344"/><text fill="#000000" font-family="sans-serif" font-size="14" lengthAdjust="spacing" textLength="175" x="288.5" y="366.9951">node-typescript-template</text></a></g><!--entity class-validator-extended--><g id="elem_class-validator-extended"><a href="https://github.com/Byndyusoft/class-validator-extended" target="_blank" title="https://github.com/Byndyusoft/class-validator-extended" xlink:actuate="onRequest" xlink:href="https://github.com/Byndyusoft/class-validator-extended" xlink:show="new" xlink:title="https://github.com/Byndyusoft/class-validator-extended" xlink:type="simple"><rect fill="#FEEEB7" height="36.2969" rx="2.5" ry="2.5" style="stroke:#181818;stroke-width:0.5;" width="188" x="217" y="536"/><text fill="#000000" font-family="sans-serif" font-size="14" lengthAdjust="spacing" textLength="168" x="227" y="558.9951">class-validator-extended</text></a></g><!--entity eslint-config--><g id="elem_eslint-config"><a href="https://github.com/Byndyusoft/eslint-config" target="_blank" title="https://github.com/Byndyusoft/eslint-config" xlink:actuate="onRequest" xlink:href="https://github.com/Byndyusoft/eslint-config" xlink:show="new" xlink:title="https://github.com/Byndyusoft/eslint-config" xlink:type="simple"><rect fill="#FEEEB7" height="36.2969" rx="2.5" ry="2.5" style="stroke:#181818;stroke-width:0.5;" width="104" x="648" y="41"/><text fill="#000000" font-family="sans-serif" font-size="14" lengthAdjust="spacing" textLength="84" x="658" y="63.9951">eslint-config</text></a></g><!--entity nest-dynamic-module--><g id="elem_nest-dynamic-module"><a href="https://github.com/Byndyusoft/nest-dynamic-module" target="_blank" title="https://github.com/Byndyusoft/nest-dynamic-module" xlink:actuate="onRequest" xlink:href="https://github.com/Byndyusoft/nest-dynamic-module" xlink:show="new" xlink:title="https://github.com/Byndyusoft/nest-dynamic-module" xlink:type="simple"><rect fill="#FEEEB7" height="36.2969" rx="2.5" ry="2.5" style="stroke:#181818;stroke-width:0.5;" width="170" x="170" y="440"/><text fill="#000000" font-family="sans-serif" font-size="14" lengthAdjust="spacing" textLength="150" x="180" y="462.9951">nest-dynamic-module</text></a></g><!--entity nest-http-client--><g id="elem_nest-http-client"><a href="https://github.com/Byndyusoft/nest-http-client" target="_blank" title="https://github.com/Byndyusoft/nest-http-client" xlink:actuate="onRequest" xlink:href="https://github.com/Byndyusoft/nest-http-client" xlink:show="new" xlink:title="https://github.com/Byndyusoft/nest-http-client" xlink:type="simple"><rect fill="#FEEEB7" height="36.2969" rx="2.5" ry="2.5" style="stroke:#181818;stroke-width:0.5;" width="126" x="689" y="536"/><text fill="#000000" font-family="sans-serif" font-size="14" lengthAdjust="spacing" textLength="106" x="699" y="558.9951">nest-http-client</text></a></g><!--entity nest-kafka--><g id="elem_nest-kafka"><a href="https://github.com/Byndyusoft/nest-kafka" target="_blank" title="https://github.com/Byndyusoft/nest-kafka" xlink:actuate="onRequest" xlink:href="https://github.com/Byndyusoft/nest-kafka" xlink:show="new" xlink:title="https://github.com/Byndyusoft/nest-kafka" xlink:type="simple"><rect fill="#FEEEB7" height="36.2969" rx="2.5" ry="2.5" style="stroke:#181818;stroke-width:0.5;" width="92" x="135" y="632"/><text fill="#000000" font-family="sans-serif" font-size="14" lengthAdjust="spacing" textLength="72" x="145" y="654.9951">nest-kafka</text></a></g><!--entity nest-opentracing--><g id="elem_nest-opentracing"><a href="https://github.com/Byndyusoft/nest-opentracing" target="_blank" title="https://github.com/Byndyusoft/nest-opentracing" xlink:actuate="onRequest" xlink:href="https://github.com/Byndyusoft/nest-opentracing" xlink:show="new" xlink:title="https://github.com/Byndyusoft/nest-opentracing" xlink:type="simple"><rect fill="#FEEEB7" height="36.2969" rx="2.5" ry="2.5" style="stroke:#181818;stroke-width:0.5;" width="139" x="440.5" y="536"/><text fill="#000000" font-family="sans-serif" font-size="14" lengthAdjust="spacing" textLength="119" x="450.5" y="558.9951">nest-opentracing</text></a></g><!--entity node-casc--><g id="elem_node-casc"><a href="https://github.com/Byndyusoft/node-casc" target="_blank" title="https://github.com/Byndyusoft/node-casc" xlink:actuate="onRequest" xlink:href="https://github.com/Byndyusoft/node-casc" xlink:show="new" xlink:title="https://github.com/Byndyusoft/node-casc" xlink:type="simple"><rect fill="#FEEEB7" height="36.2969" rx="2.5" ry="2.5" style="stroke:#181818;stroke-width:0.5;" width="93" x="432.5" y="41"/><text fill="#000000" font-family="sans-serif" font-size="14" lengthAdjust="spacing" textLength="73" x="442.5" y="63.9951">node-casc</text></a></g><!--entity node-dto-factory--><g id="elem_node-dto-factory"><a href="https://github.com/Byndyusoft/node-dto-factory" target="_blank" title="https://github.com/Byndyusoft/node-dto-factory" xlink:actuate="onRequest" xlink:href="https://github.com/Byndyusoft/node-dto-factory" xlink:show="new" xlink:title="https://github.com/Byndyusoft/node-dto-factory" xlink:type="simple"><rect fill="#FEEEB7" height="36.2969" rx="2.5" ry="2.5" style="stroke:#181818;stroke-width:0.5;" width="135" x="449.5" y="440"/><text fill="#000000" font-family="sans-serif" font-size="14" lengthAdjust="spacing" textLength="115" x="459.5" y="462.9951">node-dto-factory</text></a></g><!--entity node-pino-logger-factory--><g id="elem_node-pino-logger-factory"><a href="https://github.com/Byndyusoft/node-pino-logger-factory" target="_blank" title="https://github.com/Byndyusoft/node-pino-logger-factory" xlink:actuate="onRequest" xlink:href="https://github.com/Byndyusoft/node-pino-logger-factory" xlink:show="new" xlink:title="https://github.com/Byndyusoft/node-pino-logger-factory" xlink:type="simple"><rect fill="#FEEEB7" height="36.2969" rx="2.5" ry="2.5" style="stroke:#181818;stroke-width:0.5;" width="191" x="619.5" y="440"/><text fill="#000000" font-family="sans-serif" font-size="14" lengthAdjust="spacing" textLength="171" x="629.5" y="462.9951">node-pino-logger-factory</text></a></g><!--entity node-sonar-coverage-reporter--><g id="elem_node-sonar-coverage-reporter"><a href="https://github.com/Byndyusoft/node-sonar-coverage-reporter" target="_blank" title="https://github.com/Byndyusoft/node-sonar-coverage-reporter" xlink:actuate="onRequest" xlink:href="https://github.com/Byndyusoft/node-sonar-coverage-reporter" xlink:show="new" xlink:title="https://github.com/Byndyusoft/node-sonar-coverage-reporter" xlink:type="simple"><rect fill="#FEEEB7" height="36.2969" rx="2.5" ry="2.5" style="stroke:#181818;stroke-width:0.5;" width="230" x="846" y="440"/><text fill="#000000" font-family="sans-serif" font-size="14" lengthAdjust="spacing" textLength="210" x="856" y="462.9951">node-sonar-coverage-reporter</text></a></g><!--entity tsconfig--><g id="elem_tsconfig"><a href="https://github.com/Byndyusoft/tsconfig" target="_blank" title="https://github.com/Byndyusoft/tsconfig" xlink:actuate="onRequest" xlink:href="https://github.com/Byndyusoft/tsconfig" xlink:show="new" xlink:title="https://github.com/Byndyusoft/tsconfig" xlink:type="simple"><rect fill="#FEEEB7" height="36.2969" rx="2.5" ry="2.5" style="stroke:#181818;stroke-width:0.5;" width="75" x="338.5" y="248"/><text fill="#000000" font-family="sans-serif" font-size="14" lengthAdjust="spacing" textLength="55" x="348.5" y="270.9951">tsconfig</text></a></g><!--entity nest-pino--><g id="elem_nest-pino"><a href="https://github.com/Byndyusoft/nest-pino" target="_blank" title="https://github.com/Byndyusoft/nest-pino" xlink:actuate="onRequest" xlink:href="https://github.com/Byndyusoft/nest-pino" xlink:show="new" xlink:title="https://github.com/Byndyusoft/nest-pino" xlink:type="simple"><rect fill="#EBEBEB" height="36.2969" rx="2.5" ry="2.5" style="stroke:#181818;stroke-width:0.5;" width="86" x="22" y="536"/><text fill="#000000" font-family="sans-serif" font-size="14" lengthAdjust="spacing" textLength="66" x="32" y="558.9951">nest-pino</text></a></g><!--entity nest-swagger--><g id="elem_nest-swagger"><a href="https://github.com/Byndyusoft/nest-swagger" target="_blank" title="https://github.com/Byndyusoft/nest-swagger" xlink:actuate="onRequest" xlink:href="https://github.com/Byndyusoft/nest-swagger" xlink:show="new" xlink:title="https://github.com/Byndyusoft/nest-swagger" xlink:type="simple"><rect fill="#EBEBEB" height="36.2969" rx="2.5" ry="2.5" style="stroke:#181818;stroke-width:0.5;" width="115" x="94.5" y="344"/><text fill="#000000" font-family="sans-serif" font-size="14" lengthAdjust="spacing" textLength="95" x="104.5" y="366.9951">nest-swagger</text></a></g><!--entity node-renovate-config--><g id="elem_node-renovate-config"><a href="https://github.com/Byndyusoft/node-renovate-config" target="_blank" title="https://github.com/Byndyusoft/node-renovate-config" xlink:actuate="onRequest" xlink:href="https://github.com/Byndyusoft/node-renovate-config" xlink:show="new" xlink:title="https://github.com/Byndyusoft/node-renovate-config" xlink:type="simple"><rect fill="#D3F3BE" height="36.2969" rx="2.5" ry="2.5" style="stroke:#181818;stroke-width:0.5;" width="169" x="448.5" y="248"/><text fill="#000000" font-family="sans-serif" font-size="14" lengthAdjust="spacing" textLength="149" x="458.5" y="270.9951">node-renovate-config</text></a></g><!--entity node-reusable-workflows--><g id="elem_node-reusable-workflows"><a href="https://github.com/Byndyusoft/node-reusable-workflows" target="_blank" title="https://github.com/Byndyusoft/node-reusable-workflows" xlink:actuate="onRequest" xlink:href="https://github.com/Byndyusoft/node-reusable-workflows" xlink:show="new" xlink:title="https://github.com/Byndyusoft/node-reusable-workflows" xlink:type="simple"><rect fill="#D3F3BE" height="36.2969" rx="2.5" ry="2.5" style="stroke:#181818;stroke-width:0.5;" width="194" x="652" y="248"/><text fill="#000000" font-family="sans-serif" font-size="14" lengthAdjust="spacing" textLength="174" x="662" y="270.9951">node-reusable-workflows</text></a></g><!--entity nodejs-integration-tests-template--><g id="elem_nodejs-integration-tests-template"><a href="https://github.com/Byndyusoft/nodejs-integration-tests-template" target="_blank" title="https://github.com/Byndyusoft/nodejs-integration-tests-template" xlink:actuate="onRequest" xlink:href="https://github.com/Byndyusoft/nodejs-integration-tests-template" xlink:show="new" xlink:title="https://github.com/Byndyusoft/nodejs-integration-tests-template" xlink:type="simple"><rect fill="#C0E1FB" height="36.2969" rx="2.5" ry="2.5" style="stroke:#181818;stroke-width:0.5;" width="252" x="1132" y="41"/><text fill="#000000" font-family="sans-serif" font-size="14" lengthAdjust="spacing" textLength="232" x="1142" y="63.9951">nodejs-integration-tests-template</text></a></g><!--entity grpc-timeouts--><g id="elem_grpc-timeouts"><a href="https://github.com/Byndyusoft/grpc-timeouts" target="_blank" title="https://github.com/Byndyusoft/grpc-timeouts" xlink:actuate="onRequest" xlink:href="https://github.com/Byndyusoft/grpc-timeouts" xlink:show="new" xlink:title="https://github.com/Byndyusoft/grpc-timeouts" xlink:type="simple"><rect fill="#FEEEB7" height="36.2969" rx="2.5" ry="2.5" style="stroke:#181818;stroke-width:0.5;" width="117" x="1257.5" y="152"/><text fill="#000000" font-family="sans-serif" font-size="14" lengthAdjust="spacing" textLength="97" x="1267.5" y="174.9951">grpc-timeouts</text></a></g><!--entity grpc-tools--><g id="elem_grpc-tools"><a href="https://github.com/Byndyusoft/grpc-tools" target="_blank" title="https://github.com/Byndyusoft/grpc-tools" xlink:actuate="onRequest" xlink:href="https://github.com/Byndyusoft/grpc-tools" xlink:show="new" xlink:title="https://github.com/Byndyusoft/grpc-tools" xlink:type="simple"><rect fill="#FEEEB7" height="36.2969" rx="2.5" ry="2.5" style="stroke:#181818;stroke-width:0.5;" width="90" x="1132" y="152"/><text fill="#000000" font-family="sans-serif" font-size="14" lengthAdjust="spacing" textLength="70" x="1142" y="174.9951">grpc-tools</text></a></g><!--reverse link node-typescript-template to nest-template--><g id="link_node-typescript-template_nest-template"><path d="M389.55,398.94 C401.33,428.19 418.55,466.2 432,476 C577.65,582.11 715.38,399.47 833,536 C866.03,574.34 798.83,611.17 749.03,631.86 " fill="none" id="node-typescript-template-backto-nest-template" style="stroke:#181818;stroke-width:1.0;"/><polygon fill="none" points="382.96,401.3,382.23,380.12,396.01,396.22,382.96,401.3" style="stroke:#181818;stroke-width:1.0;"/></g><!--reverse link class-validator-extended to nest-template--><g id="link_class-validator-extended_nest-template"><path d="M386.69,573.2 C461.62,591.21 574.78,618.42 643.21,634.87 " fill="none" id="class-validator-extended-backto-nest-template" style="stroke:#181818;stroke-width:1.0;stroke-dasharray:7.0,7.0;"/><polygon fill="#181818" points="381.81,572.02,389.6213,578.0186,386.6706,573.1923,391.497,570.2416,381.81,572.02" style="stroke:#181818;stroke-width:1.0;"/></g><!--reverse link nest-dynamic-module to nest-template--><g id="link_nest-dynamic-module_nest-template"><path d="M345.46,474.18 C447.37,491.84 601.9,520.57 625,536 C660.73,559.87 684.43,606.47 695.25,631.73 " fill="none" id="nest-dynamic-module-backto-nest-template" style="stroke:#181818;stroke-width:1.0;stroke-dasharray:7.0,7.0;"/><polygon fill="#181818" points="340.35,473.29,348.5315,478.7729,345.2761,474.1467,349.9023,470.8912,340.35,473.29" style="stroke:#181818;stroke-width:1.0;"/></g><!--reverse link nest-http-client to nest-template--><g id="link_nest-http-client_nest-template"><path d="M740.41,576.8 C731.49,593.56 719.34,616.4 711.11,631.87 " fill="none" id="nest-http-client-backto-nest-template" style="stroke:#181818;stroke-width:1.0;stroke-dasharray:7.0,7.0;"/><polygon fill="#181818" points="742.83,572.24,735.0622,578.2949,740.4748,576.6506,742.1192,582.0632,742.83,572.24" style="stroke:#181818;stroke-width:1.0;"/></g><!--reverse link nest-opentracing to nest-template--><g id="link_nest-opentracing_nest-template"><path d="M549.34,574.26 C583.98,591.22 633.94,615.68 667.17,631.95 " fill="none" id="nest-opentracing-backto-nest-template" style="stroke:#181818;stroke-width:1.0;stroke-dasharray:7.0,7.0;"/><polygon fill="#181818" points="544.77,572.02,551.0891,579.5744,549.2592,574.2217,554.6118,572.3917,544.77,572.02" style="stroke:#181818;stroke-width:1.0;"/></g><!--reverse link nest-pino to nest-template--><g id="link_nest-pino_nest-template"><path d="M113.3,562.13 C228.39,579.11 518.53,621.93 643.38,640.35 " fill="none" id="nest-pino-backto-nest-template" style="stroke:#181818;stroke-width:1.0;stroke-dasharray:7.0,7.0;"/><polygon fill="#181818" points="108.28,561.39,116.6005,566.6597,113.2266,562.1191,117.7671,558.7452,108.28,561.39" style="stroke:#181818;stroke-width:1.0;"/></g><!--reverse link nest-swagger to nest-template--><g id="link_nest-swagger_nest-template"><path d="M144.29,385.17 C137.07,410.37 130.33,451.21 152,476 C283.35,626.25 427.75,430.26 597,536 C613.31,546.19 608.62,557.28 621,572 C639.73,594.27 664.32,616.88 681.47,631.78 " fill="none" id="nest-swagger-backto-nest-template" style="stroke:#181818;stroke-width:1.0;stroke-dasharray:7.0,7.0;"/><polygon fill="#181818" points="145.73,380.34,139.3023,387.8023,144.2867,385.1272,146.9618,390.1115,145.73,380.34" style="stroke:#181818;stroke-width:1.0;"/></g><!--reverse link node-dto-factory to nest-template--><g id="link_node-dto-factory_nest-template"><path d="M589.49,474.1 C688.87,494.96 855.72,530.66 860,536 C894.82,579.51 818.85,613.93 760.62,632.87 " fill="none" id="node-dto-factory-backto-nest-template" style="stroke:#181818;stroke-width:1.0;stroke-dasharray:7.0,7.0;"/><polygon fill="#181818" points="584.51,473.05,592.509,478.7959,589.4056,474.0663,594.1352,470.9629,584.51,473.05" style="stroke:#181818;stroke-width:1.0;"/></g><!--reverse link node-pino-logger-factory to nest-template--><g id="link_node-pino-logger-factory_nest-template"><path d="M799.47,477.51 C860.91,495.19 928.28,526.01 897,572 C866.7,616.54 806.26,635.32 760.66,643.23 " fill="none" id="node-pino-logger-factory-backto-nest-template" style="stroke:#181818;stroke-width:1.0;stroke-dasharray:7.0,7.0;"/><polygon fill="#181818" points="794.3,476.05,801.8771,482.3419,799.1124,477.4066,804.0477,474.642,794.3,476.05" style="stroke:#181818;stroke-width:1.0;"/></g><!--reverse link node-sonar-coverage-reporter to nest-template--><g id="link_node-sonar-coverage-reporter_nest-template"><path d="M956.12,481.53 C949.53,506.8 935.46,547.46 909,572 C867.82,610.2 805.98,629.9 760.61,639.76 " fill="none" id="node-sonar-coverage-reporter-backto-nest-template" style="stroke:#181818;stroke-width:1.0;stroke-dasharray:7.0,7.0;"/><polygon fill="#181818" points="957.41,476.38,951.3466,484.1411,956.1973,481.2307,959.1077,486.0814,957.41,476.38" style="stroke:#181818;stroke-width:1.0;"/></g><!--reverse link eslint-config to node-base-template--><g id="link_eslint-config_node-base-template"><path d="M644.3,78.74 C583.08,99.33 485.62,132.12 426.54,152 " fill="none" id="eslint-config-backto-node-base-template" style="stroke:#181818;stroke-width:1.0;stroke-dasharray:7.0,7.0;"/><polygon fill="#181818" points="649.38,77.03,639.5752,76.0991,644.6395,78.6197,642.1188,83.6839,649.38,77.03" style="stroke:#181818;stroke-width:1.0;"/></g><!--reverse link node-base-template to node-typescript-template--><g id="link_node-base-template_node-typescript-template"><path d="M345.72,203.84 C335.84,216.65 326.1,232.08 321,248 C316.12,263.24 316.12,268.76 321,284 C328.42,307.15 345.64,329.27 358.85,343.81 " fill="none" id="node-base-template-backto-node-typescript-template" style="stroke:#181818;stroke-width:1.0;"/><polygon fill="none" points="340.63,199.01,358.85,188.19,351.36,208.01,340.63,199.01" style="stroke:#181818;stroke-width:1.0;"/></g><!--reverse link tsconfig to node-typescript-template--><g id="link_tsconfig_node-typescript-template"><path d="M376,289.66 C376,306.34 376,328.66 376,343.87 " fill="none" id="tsconfig-backto-node-typescript-template" style="stroke:#181818;stroke-width:1.0;stroke-dasharray:7.0,7.0;"/><polygon fill="#181818" points="376,284.24,372,293.24,376,289.24,380,293.24,376,284.24" style="stroke:#181818;stroke-width:1.0;"/></g><!--reverse link node-typescript-template to class-validator-extended--><g id="link_node-typescript-template_class-validator-extended"><path d="M258.62,375.52 C218.11,386.12 176.74,405.34 152,440 C120.47,484.17 190.72,517.32 247.68,535.94 " fill="none" id="node-typescript-template-backto-class-validator-extended" style="stroke:#181818;stroke-width:1.0;"/><polygon fill="none" points="257.3,368.64,278.36,370.98,260.44,382.29,257.3,368.64" style="stroke:#181818;stroke-width:1.0;"/></g><!--reverse link node-typescript-template to nest-dynamic-module--><g id="link_node-typescript-template_nest-dynamic-module"><path d="M338.08,392.46 C318.05,408.02 294.17,426.57 277.16,439.79 " fill="none" id="node-typescript-template-backto-nest-dynamic-module" style="stroke:#181818;stroke-width:1.0;"/><polygon fill="none" points="334,386.76,354.09,380.02,342.59,397.82,334,386.76" style="stroke:#181818;stroke-width:1.0;"/></g><!--reverse link node-typescript-template to nest-http-client--><g id="link_node-typescript-template_nest-http-client"><path d="M375.64,400.58 C377.47,425.3 384.06,456.55 404,476 C414.24,485.99 591.42,521.75 688.91,540.82 " fill="none" id="node-typescript-template-backto-nest-http-client" style="stroke:#181818;stroke-width:1.0;"/><polygon fill="none" points="368.64,400.44,375.05,380.25,382.63,400.04,368.64,400.44" style="stroke:#181818;stroke-width:1.0;"/></g><!--reverse link nest-dynamic-module to nest-http-client--><g id="link_nest-dynamic-module_nest-http-client"><path d="M345.14,476.05 C444.51,494.84 601.81,524.59 688.85,541.06 " fill="none" id="nest-dynamic-module-backto-nest-http-client" style="stroke:#181818;stroke-width:1.0;stroke-dasharray:7.0,7.0;"/><polygon fill="#181818" points="340.15,475.11,348.2479,480.7158,345.0626,476.041,349.7374,472.8557,340.15,475.11" style="stroke:#181818;stroke-width:1.0;"/></g><!--reverse link node-typescript-template to nest-kafka--><g id="link_node-typescript-template_nest-kafka"><path d="M258.74,371.8 C213.14,381.65 165.18,401.32 137,440 C93.34,499.94 144.75,593.79 169.34,631.98 " fill="none" id="node-typescript-template-backto-nest-kafka" style="stroke:#181818;stroke-width:1.0;"/><polygon fill="none" points="257.47,364.92,278.42,368.1,260.05,378.68,257.47,364.92" style="stroke:#181818;stroke-width:1.0;"/></g><!--reverse link class-validator-extended to nest-kafka--><g id="link_class-validator-extended_nest-kafka"><path d="M283.22,575.09 C259.9,591.95 226.94,615.79 204.81,631.79 " fill="none" id="class-validator-extended-backto-nest-kafka" style="stroke:#181818;stroke-width:1.0;stroke-dasharray:7.0,7.0;"/><polygon fill="#181818" points="287.46,572.02,277.8214,574.0442,283.4059,574.9464,282.5037,580.5309,287.46,572.02" style="stroke:#181818;stroke-width:1.0;"/></g><!--reverse link nest-dynamic-module to nest-kafka--><g id="link_nest-dynamic-module_nest-kafka"><path d="M235.36,480.15 C222.93,494.74 207.63,515.21 199,536 C185.67,568.11 182.16,609.12 181.26,631.86 " fill="none" id="nest-dynamic-module-backto-nest-kafka" style="stroke:#181818;stroke-width:1.0;stroke-dasharray:7.0,7.0;"/><polygon fill="#181818" points="238.78,476.19,229.8689,480.3843,235.5108,479.9732,235.9219,485.615,238.78,476.19" style="stroke:#181818;stroke-width:1.0;"/></g><!--reverse link nest-opentracing to nest-kafka--><g id="link_nest-opentracing_nest-kafka"><path d="M445.46,573.44 C381.17,591.81 284.06,619.55 227.14,635.82 " fill="none" id="nest-opentracing-backto-nest-kafka" style="stroke:#181818;stroke-width:1.0;stroke-dasharray:7.0,7.0;"/><polygon fill="#181818" points="450.42,572.02,440.6685,570.6387,445.6113,573.3898,442.8602,578.3327,450.42,572.02" style="stroke:#181818;stroke-width:1.0;"/></g><!--reverse link nest-pino to nest-kafka--><g id="link_nest-pino_nest-kafka"><path d="M90.05,575.3 C110.84,592.15 140.09,615.85 159.76,631.79 " fill="none" id="nest-pino-backto-nest-kafka" style="stroke:#181818;stroke-width:1.0;stroke-dasharray:7.0,7.0;"/><polygon fill="#181818" points="86.01,572.02,90.4921,580.7899,89.8976,575.1643,95.5231,574.5698,86.01,572.02" style="stroke:#181818;stroke-width:1.0;"/></g><!--reverse link nest-dynamic-module to nest-opentracing--><g id="link_nest-dynamic-module_nest-opentracing"><path d="M306.13,477.85 C352.17,494.82 419.25,519.55 463.73,535.95 " fill="none" id="nest-dynamic-module-backto-nest-opentracing" style="stroke:#181818;stroke-width:1.0;stroke-dasharray:7.0,7.0;"/><polygon fill="#181818" points="301.18,476.02,308.2209,482.9066,305.8663,477.7631,311.0099,475.4085,301.18,476.02" style="stroke:#181818;stroke-width:1.0;"/></g><!--reverse link node-typescript-template to node-dto-factory--><g id="link_node-typescript-template_node-dto-factory"><path d="M418.44,391.29 C442.13,407.08 470.86,426.24 491.18,439.79 " fill="none" id="node-typescript-template-backto-node-dto-factory" style="stroke:#181818;stroke-width:1.0;"/><polygon fill="none" points="414.29,396.94,401.53,380.02,422.06,385.29,414.29,396.94" style="stroke:#181818;stroke-width:1.0;"/></g><!--reverse link node-typescript-template to node-pino-logger-factory--><g id="link_node-typescript-template_node-pino-logger-factory"><path d="M456.98,385.46 C517.31,402.18 598.43,424.68 653.49,439.95 " fill="none" id="node-typescript-template-backto-node-pino-logger-factory" style="stroke:#181818;stroke-width:1.0;"/><polygon fill="none" points="454.79,392.11,437.39,380.02,458.53,378.62,454.79,392.11" style="stroke:#181818;stroke-width:1.0;"/></g><!--reverse link node-typescript-template to node-sonar-coverage-reporter--><g id="link_node-typescript-template_node-sonar-coverage-reporter"><path d="M493.39,381.86 C599.05,398.84 752.95,423.57 854.97,439.96 " fill="none" id="node-typescript-template-backto-node-sonar-coverage-reporter" style="stroke:#181818;stroke-width:1.0;"/><polygon fill="none" points="492.22,388.76,473.59,378.68,494.44,374.94,492.22,388.76" style="stroke:#181818;stroke-width:1.0;"/></g><!--reverse link node-base-template to tsconfig--><g id="link_node-base-template_tsconfig"><path d="M376,208.62 C376,222.21 376,236.89 376,247.87 " fill="none" id="node-base-template-backto-tsconfig" style="stroke:#181818;stroke-width:1.0;"/><polygon fill="none" points="369,208.24,376,188.24,383,208.24,369,208.24" style="stroke:#181818;stroke-width:1.0;"/></g><!--reverse link node-base-template to nest-pino--><g id="link_node-base-template_nest-pino"><path d="M292.2,194.45 C221.38,219.13 124.15,265.53 77,344 C39.75,405.99 53.16,497.9 60.98,535.75 " fill="none" id="node-base-template-backto-nest-pino" style="stroke:#181818;stroke-width:1.0;"/><polygon fill="none" points="290.23,187.73,311.42,188.06,294.65,201.02,290.23,187.73" style="stroke:#181818;stroke-width:1.0;"/></g><!--reverse link node-base-template to nest-swagger--><g id="link_node-base-template_nest-swagger"><path d="M340.19,201.38 C292.55,241.78 209.97,311.83 172.07,343.98 " fill="none" id="node-base-template-backto-nest-swagger" style="stroke:#181818;stroke-width:1.0;"/><polygon fill="none" points="335.95,195.8,355.73,188.2,345,206.47,335.95,195.8" style="stroke:#181818;stroke-width:1.0;"/></g><!--reverse link node-base-template to node-renovate-config--><g id="link_node-base-template_node-renovate-config"><path d="M421.77,198.4 C448.52,214.42 481.45,234.14 504.52,247.95 " fill="none" id="node-base-template-backto-node-renovate-config" style="stroke:#181818;stroke-width:1.0;"/><polygon fill="none" points="418,204.3,404.43,188.02,425.19,192.29,418,204.3" style="stroke:#181818;stroke-width:1.0;"/></g><!--reverse link node-base-template to node-reusable-workflows--><g id="link_node-base-template_node-reusable-workflows"><path d="M462.95,192.91 C529.54,209.69 620.08,232.51 681.33,247.95 " fill="none" id="node-base-template-backto-node-reusable-workflows" style="stroke:#181818;stroke-width:1.0;"/><polygon fill="none" points="461.23,199.7,443.55,188.02,464.65,186.12,461.23,199.7" style="stroke:#181818;stroke-width:1.0;"/></g><!--reverse link eslint-config to grpc-timeouts--><g id="link_eslint-config_grpc-timeouts"><path d="M757.34,66.27 C837.51,74.9 987.71,90.54 1116,101 C1143.52,103.24 1214.22,99.11 1240,109 C1263.86,118.15 1286.18,137.59 1300.37,151.87 " fill="none" id="eslint-config-backto-grpc-timeouts" style="stroke:#181818;stroke-width:1.0;stroke-dasharray:7.0,7.0;"/><polygon fill="#181818" points="752.16,65.71,760.6726,70.6633,757.1305,66.2528,761.541,62.7106,752.16,65.71" style="stroke:#181818;stroke-width:1.0;"/></g><!--SRC=[ZPNDSjiW58NtVWhgJTgPqdVmj4wdapRD9CwqMuAkL6846a1sFPsyUv6j7q20jPGuz_3tdSix9YXl2q1KrhKKdvgsvgjLANa12gsVDHCLOWBLqduBr2Zv2jJeDVgtGcYt_V7mVRFRlbyBq0ORg1jE3Am_-6Es5ByG3Lc1EJMWgMADvsDr3vlFTvklLaOvqHeV26S5CL9X-6j0552StKOLQCw4mLIAabN-q7cHnKcGcb5iDzHoY0Z-6DDWoXa84ndTat9F8lzbO_MAK7jSmMYtEKeqZVmkZCGbeNOpfyXemuJ4N5OLg8nAIq6KtUu15Aa0AsYaCg1yfT7ZUTZVjpyVx_fbTtESfSu_VIJTd1Vjj_lRnqq_bG8X3_PUtCFrnrjDNZZWerJxaikZjfAt2QPVzdV7aeMeKg3d45cJLutjzK6bY65IM1IqqIuGRn4sELI4dW8snxrNgg7Oi1faQxH_B9SXANc_q1laSRpQ_jvjxxyyXNX_H3badv-saO8ClF62EAmPhSzjHkYZcX7sS6GK4oe9qPpoZ30EVAOWpNvtbREsqrlDsv7r2zl6O12vOmUB50N30iEkDoqWKUK6zGQbe9bMaCGgp-X0kizNm7i0tp97XyB0pkLpQOB2ccWcXgdFhJcOzDAkbqutgXUbTVA-4bLVc8gVh-gpD-pDAN9ANAliyGGn30Xs0thzbXD93JnZMLxcdGXru9-A_jKvXeHDVcFcKgaTBg7RKy3N-PgkrVLTCYWTUcUkElBg1kSGlidNtS8tUcOuUyGpdjxZUY7JVsyZhVK_]--></g></svg>