<?xml version="1.0" encoding="us-ascii" standalone="no"?><svg xmlns="http://www.w3.org/2000/svg" xmlns:xlink="http://www.w3.org/1999/xlink" contentStyleType="text/css" height="691px" preserveAspectRatio="none" style="width:1451px;height:691px;background:#FFFFFF;" version="1.1" viewBox="0 0 1451 691" width="1451px" zoomAndPan="magnify"><defs/><g><!--cluster Using in modern projects--><g id="cluster_Using in modern projects"><path d="M8.5,6 L208.5,6 A3.75,3.75 0 0 1 211,8.5 L218,28.2969 L1133.5,28.2969 A2.5,2.5 0 0 1 1136,30.7969 L1136,681.5 A2.5,2.5 0 0 1 1133.5,684 L8.5,684 A2.5,2.5 0 0 1 6,681.5 L6,8.5 A2.5,2.5 0 0 1 8.5,6 " fill="none" style="stroke:#000000;stroke-width:1.5;"/><line style="stroke:#000000;stroke-width:1.5;" x1="6" x2="218" y1="28.2969" y2="28.2969"/><text fill="#000000" font-family="sans-serif" font-size="14" font-weight="bold" lengthAdjust="spacing" textLength="199" x="10" y="20.9951">Using in modern projects</text></g><!--cluster Work in progress--><g id="cluster_Work in progress"><path d="M1162.5,6 L1300.5,6 A3.75,3.75 0 0 1 1303,8.5 L1310,28.2969 L1441.5,28.2969 A2.5,2.5 0 0 1 1444,30.7969 L1444,90.5 A2.5,2.5 0 0 1 1441.5,93 L1162.5,93 A2.5,2.5 0 0 1 1160,90.5 L1160,8.5 A2.5,2.5 0 0 1 1162.5,6 " fill="none" style="stroke:#000000;stroke-width:1.5;"/><line style="stroke:#000000;stroke-width:1.5;" x1="1160" x2="1310" y1="28.2969" y2="28.2969"/><text fill="#000000" font-family="sans-serif" font-size="14" font-weight="bold" lengthAdjust="spacing" textLength="137" x="1164" y="20.9951">Work in progress</text></g><!--cluster Using in legacy projects--><g id="cluster_Using in legacy projects"><path d="M1162.5,117 L1352.5,117 A3.75,3.75 0 0 1 1355,119.5 L1362,139.2969 L1432.5,139.2969 A2.5,2.5 0 0 1 1435,141.7969 L1435,201.5 A2.5,2.5 0 0 1 1432.5,204 L1162.5,204 A2.5,2.5 0 0 1 1160,201.5 L1160,119.5 A2.5,2.5 0 0 1 1162.5,117 " fill="none" style="stroke:#000000;stroke-width:1.5;"/><line style="stroke:#000000;stroke-width:1.5;" x1="1160" x2="1362" y1="139.2969" y2="139.2969"/><text fill="#000000" font-family="sans-serif" font-size="14" font-weight="bold" lengthAdjust="spacing" textLength="189" x="1164" y="131.9951">Using in legacy projects</text></g><!--entity nest-template--><g id="elem_nest-template"><a href="https://github.com/Byndyusoft/nest-template" target="_blank" title="https://github.com/Byndyusoft/nest-template" xlink:actuate="onRequest" xlink:href="https://github.com/Byndyusoft/nest-template" xlink:show="new" xlink:title="https://github.com/Byndyusoft/nest-template" xlink:type="simple"><rect fill="#C0E1FB" height="36.2969" rx="2.5" ry="2.5" style="stroke:#181818;stroke-width:0.5;" width="117" x="739.5" y="632"/><text fill="#000000" font-family="sans-serif" font-size="14" lengthAdjust="spacing" textLength="97" x="749.5" y="654.9951">nest-template</text></a></g><!--entity node-base-template--><g id="elem_node-base-template"><a href="https://github.com/Byndyusoft/node-base-template" target="_blank" title="https://github.com/Byndyusoft/node-base-template" xlink:actuate="onRequest" xlink:href="https://github.com/Byndyusoft/node-base-template" xlink:show="new" xlink:title="https://github.com/Byndyusoft/node-base-template" xlink:type="simple"><rect fill="#C0E1FB" height="36.2969" rx="2.5" ry="2.5" style="stroke:#181818;stroke-width:0.5;" width="161" x="564.5" y="152"/><text fill="#000000" font-family="sans-serif" font-size="14" lengthAdjust="spacing" textLength="141" x="574.5" y="174.9951">node-base-template</text></a></g><!--entity node-typescript-template--><g id="elem_node-typescript-template"><a href="https://github.com/Byndyusoft/node-typescript-template" target="_blank" title="https://github.com/Byndyusoft/node-typescript-template" xlink:actuate="onRequest" xlink:href="https://github.com/Byndyusoft/node-typescript-template" xlink:show="new" xlink:title="https://github.com/Byndyusoft/node-typescript-template" xlink:type="simple"><rect fill="#C0E1FB" height="36.2969" rx="2.5" ry="2.5" style="stroke:#181818;stroke-width:0.5;" width="195" x="436.5" y="344"/><text fill="#000000" font-family="sans-serif" font-size="14" lengthAdjust="spacing" textLength="175" x="446.5" y="366.9951">node-typescript-template</text></a></g><!--entity class-validator-extended--><g id="elem_class-validator-extended"><a href="https://github.com/Byndyusoft/class-validator-extended" target="_blank" title="https://github.com/Byndyusoft/class-validator-extended" xlink:actuate="onRequest" xlink:href="https://github.com/Byndyusoft/class-validator-extended" xlink:show="new" xlink:title="https://github.com/Byndyusoft/class-validator-extended" xlink:type="simple"><rect fill="#FEEEB7" height="36.2969" rx="2.5" ry="2.5" style="stroke:#181818;stroke-width:0.5;" width="188" x="180" y="536"/><text fill="#000000" font-family="sans-serif" font-size="14" lengthAdjust="spacing" textLength="168" x="190" y="558.9951">class-validator-extended</text></a></g><!--entity eslint-config--><g id="elem_eslint-config"><a href="https://github.com/Byndyusoft/eslint-config" target="_blank" title="https://github.com/Byndyusoft/eslint-config" xlink:actuate="onRequest" xlink:href="https://github.com/Byndyusoft/eslint-config" xlink:show="new" xlink:title="https://github.com/Byndyusoft/eslint-config" xlink:type="simple"><rect fill="#FEEEB7" height="36.2969" rx="2.5" ry="2.5" style="stroke:#181818;stroke-width:0.5;" width="104" x="813" y="41"/><text fill="#000000" font-family="sans-serif" font-size="14" lengthAdjust="spacing" textLength="84" x="823" y="63.9951">eslint-config</text></a></g><!--entity nest-dynamic-module--><g id="elem_nest-dynamic-module"><a href="https://github.com/Byndyusoft/nest-dynamic-module" target="_blank" title="https://github.com/Byndyusoft/nest-dynamic-module" xlink:actuate="onRequest" xlink:href="https://github.com/Byndyusoft/nest-dynamic-module" xlink:show="new" xlink:title="https://github.com/Byndyusoft/nest-dynamic-module" xlink:type="simple"><rect fill="#FEEEB7" height="36.2969" rx="2.5" ry="2.5" style="stroke:#181818;stroke-width:0.5;" width="170" x="310" y="440"/><text fill="#000000" font-family="sans-serif" font-size="14" lengthAdjust="spacing" textLength="150" x="320" y="462.9951">nest-dynamic-module</text></a></g><!--entity nest-http-client--><g id="elem_nest-http-client"><a href="https://github.com/Byndyusoft/nest-http-client" target="_blank" title="https://github.com/Byndyusoft/nest-http-client" xlink:actuate="onRequest" xlink:href="https://github.com/Byndyusoft/nest-http-client" xlink:show="new" xlink:title="https://github.com/Byndyusoft/nest-http-client" xlink:type="simple"><rect fill="#FEEEB7" height="36.2969" rx="2.5" ry="2.5" style="stroke:#181818;stroke-width:0.5;" width="126" x="652" y="536"/><text fill="#000000" font-family="sans-serif" font-size="14" lengthAdjust="spacing" textLength="106" x="662" y="558.9951">nest-http-client</text></a></g><!--entity nest-kafka--><g id="elem_nest-kafka"><a href="https://github.com/Byndyusoft/nest-kafka" target="_blank" title="https://github.com/Byndyusoft/nest-kafka" xlink:actuate="onRequest" xlink:href="https://github.com/Byndyusoft/nest-kafka" xlink:show="new" xlink:title="https://github.com/Byndyusoft/nest-kafka" xlink:type="simple"><rect fill="#FEEEB7" height="36.2969" rx="2.5" ry="2.5" style="stroke:#181818;stroke-width:0.5;" width="92" x="228" y="632"/><text fill="#000000" font-family="sans-serif" font-size="14" lengthAdjust="spacing" textLength="72" x="238" y="654.9951">nest-kafka</text></a></g><!--entity nest-opentracing--><g id="elem_nest-opentracing"><a href="https://github.com/Byndyusoft/nest-opentracing" target="_blank" title="https://github.com/Byndyusoft/nest-opentracing" xlink:actuate="onRequest" xlink:href="https://github.com/Byndyusoft/nest-opentracing" xlink:show="new" xlink:title="https://github.com/Byndyusoft/nest-opentracing" xlink:type="simple"><rect fill="#FEEEB7" height="36.2969" rx="2.5" ry="2.5" style="stroke:#181818;stroke-width:0.5;" width="139" x="440.5" y="536"/><text fill="#000000" font-family="sans-serif" font-size="14" lengthAdjust="spacing" textLength="119" x="450.5" y="558.9951">nest-opentracing</text></a></g><!--entity nest-prometheus--><g id="elem_nest-prometheus"><a href="https://github.com/Byndyusoft/nest-prometheus" target="_blank" title="https://github.com/Byndyusoft/nest-prometheus" xlink:actuate="onRequest" xlink:href="https://github.com/Byndyusoft/nest-prometheus" xlink:show="new" xlink:title="https://github.com/Byndyusoft/nest-prometheus" xlink:type="simple"><rect fill="#FEEEB7" height="36.2969" rx="2.5" ry="2.5" style="stroke:#181818;stroke-width:0.5;" width="141" x="59.5" y="440"/><text fill="#000000" font-family="sans-serif" font-size="14" lengthAdjust="spacing" textLength="121" x="69.5" y="462.9951">nest-prometheus</text></a></g><!--entity node-casc--><g id="elem_node-casc"><a href="https://github.com/Byndyusoft/node-casc" target="_blank" title="https://github.com/Byndyusoft/node-casc" xlink:actuate="onRequest" xlink:href="https://github.com/Byndyusoft/node-casc" xlink:show="new" xlink:title="https://github.com/Byndyusoft/node-casc" xlink:type="simple"><rect fill="#FEEEB7" height="36.2969" rx="2.5" ry="2.5" style="stroke:#181818;stroke-width:0.5;" width="93" x="472.5" y="41"/><text fill="#000000" font-family="sans-serif" font-size="14" lengthAdjust="spacing" textLength="73" x="482.5" y="63.9951">node-casc</text></a></g><!--entity node-dto-factory--><g id="elem_node-dto-factory"><a href="https://github.com/Byndyusoft/node-dto-factory" target="_blank" title="https://github.com/Byndyusoft/node-dto-factory" xlink:actuate="onRequest" xlink:href="https://github.com/Byndyusoft/node-dto-factory" xlink:show="new" xlink:title="https://github.com/Byndyusoft/node-dto-factory" xlink:type="simple"><rect fill="#FEEEB7" height="36.2969" rx="2.5" ry="2.5" style="stroke:#181818;stroke-width:0.5;" width="135" x="813.5" y="536"/><text fill="#000000" font-family="sans-serif" font-size="14" lengthAdjust="spacing" textLength="115" x="823.5" y="558.9951">node-dto-factory</text></a></g><!--entity node-pino-logger-factory--><g id="elem_node-pino-logger-factory"><a href="https://github.com/Byndyusoft/node-pino-logger-factory" target="_blank" title="https://github.com/Byndyusoft/node-pino-logger-factory" xlink:actuate="onRequest" xlink:href="https://github.com/Byndyusoft/node-pino-logger-factory" xlink:show="new" xlink:title="https://github.com/Byndyusoft/node-pino-logger-factory" xlink:type="simple"><rect fill="#FEEEB7" height="36.2969" rx="2.5" ry="2.5" style="stroke:#181818;stroke-width:0.5;" width="191" x="626.5" y="440"/><text fill="#000000" font-family="sans-serif" font-size="14" lengthAdjust="spacing" textLength="171" x="636.5" y="462.9951">node-pino-logger-factory</text></a></g><!--entity node-sonar-coverage-reporter--><g id="elem_node-sonar-coverage-reporter"><a href="https://github.com/Byndyusoft/node-sonar-coverage-reporter" target="_blank" title="https://github.com/Byndyusoft/node-sonar-coverage-reporter" xlink:actuate="onRequest" xlink:href="https://github.com/Byndyusoft/node-sonar-coverage-reporter" xlink:show="new" xlink:title="https://github.com/Byndyusoft/node-sonar-coverage-reporter" xlink:type="simple"><rect fill="#FEEEB7" height="36.2969" rx="2.5" ry="2.5" style="stroke:#181818;stroke-width:0.5;" width="230" x="853" y="440"/><text fill="#000000" font-family="sans-serif" font-size="14" lengthAdjust="spacing" textLength="210" x="863" y="462.9951">node-sonar-coverage-reporter</text></a></g><!--entity tsconfig--><g id="elem_tsconfig"><a href="https://github.com/Byndyusoft/tsconfig" target="_blank" title="https://github.com/Byndyusoft/tsconfig" xlink:actuate="onRequest" xlink:href="https://github.com/Byndyusoft/tsconfig" xlink:show="new" xlink:title="https://github.com/Byndyusoft/tsconfig" xlink:type="simple"><rect fill="#FEEEB7" height="36.2969" rx="2.5" ry="2.5" style="stroke:#181818;stroke-width:0.5;" width="75" x="496.5" y="248"/><text fill="#000000" font-family="sans-serif" font-size="14" lengthAdjust="spacing" textLength="55" x="506.5" y="270.9951">tsconfig</text></a></g><!--entity nest-pino--><g id="elem_nest-pino"><a href="https://github.com/Byndyusoft/nest-pino" target="_blank" title="https://github.com/Byndyusoft/nest-pino" xlink:actuate="onRequest" xlink:href="https://github.com/Byndyusoft/nest-pino" xlink:show="new" xlink:title="https://github.com/Byndyusoft/nest-pino" xlink:type="simple"><rect fill="#EBEBEB" height="36.2969" rx="2.5" ry="2.5" style="stroke:#181818;stroke-width:0.5;" width="86" x="22" y="536"/><text fill="#000000" font-family="sans-serif" font-size="14" lengthAdjust="spacing" textLength="66" x="32" y="558.9951">nest-pino</text></a></g><!--entity nest-swagger--><g id="elem_nest-swagger"><a href="https://github.com/Byndyusoft/nest-swagger" target="_blank" title="https://github.com/Byndyusoft/nest-swagger" xlink:actuate="onRequest" xlink:href="https://github.com/Byndyusoft/nest-swagger" xlink:show="new" xlink:title="https://github.com/Byndyusoft/nest-swagger" xlink:type="simple"><rect fill="#EBEBEB" height="36.2969" rx="2.5" ry="2.5" style="stroke:#181818;stroke-width:0.5;" width="115" x="844.5" y="344"/><text fill="#000000" font-family="sans-serif" font-size="14" lengthAdjust="spacing" textLength="95" x="854.5" y="366.9951">nest-swagger</text></a></g><!--entity node-renovate-config--><g id="elem_node-renovate-config"><a href="https://github.com/Byndyusoft/node-renovate-config" target="_blank" title="https://github.com/Byndyusoft/node-renovate-config" xlink:actuate="onRequest" xlink:href="https://github.com/Byndyusoft/node-renovate-config" xlink:show="new" xlink:title="https://github.com/Byndyusoft/node-renovate-config" xlink:type="simple"><rect fill="#D3F3BE" height="36.2969" rx="2.5" ry="2.5" style="stroke:#181818;stroke-width:0.5;" width="169" x="680.5" y="248"/><text fill="#000000" font-family="sans-serif" font-size="14" lengthAdjust="spacing" textLength="149" x="690.5" y="270.9951">node-renovate-config</text></a></g><!--entity node-reusable-workflows--><g id="elem_node-reusable-workflows"><a href="https://github.com/Byndyusoft/node-reusable-workflows" target="_blank" title="https://github.com/Byndyusoft/node-reusable-workflows" xlink:actuate="onRequest" xlink:href="https://github.com/Byndyusoft/node-reusable-workflows" xlink:show="new" xlink:title="https://github.com/Byndyusoft/node-reusable-workflows" xlink:type="simple"><rect fill="#D3F3BE" height="36.2969" rx="2.5" ry="2.5" style="stroke:#181818;stroke-width:0.5;" width="194" x="884" y="248"/><text fill="#000000" font-family="sans-serif" font-size="14" lengthAdjust="spacing" textLength="174" x="894" y="270.9951">node-reusable-workflows</text></a></g><!--entity nodejs-integration-tests-template--><g id="elem_nodejs-integration-tests-template"><a href="https://github.com/Byndyusoft/nodejs-integration-tests-template" target="_blank" title="https://github.com/Byndyusoft/nodejs-integration-tests-template" xlink:actuate="onRequest" xlink:href="https://github.com/Byndyusoft/nodejs-integration-tests-template" xlink:show="new" xlink:title="https://github.com/Byndyusoft/nodejs-integration-tests-template" xlink:type="simple"><rect fill="#C0E1FB" height="36.2969" rx="2.5" ry="2.5" style="stroke:#181818;stroke-width:0.5;" width="252" x="1176" y="41"/><text fill="#000000" font-family="sans-serif" font-size="14" lengthAdjust="spacing" textLength="232" x="1186" y="63.9951">nodejs-integration-tests-template</text></a></g><!--entity grpc-timeouts--><g id="elem_grpc-timeouts"><a href="https://github.com/Byndyusoft/grpc-timeouts" target="_blank" title="https://github.com/Byndyusoft/grpc-timeouts" xlink:actuate="onRequest" xlink:href="https://github.com/Byndyusoft/grpc-timeouts" xlink:show="new" xlink:title="https://github.com/Byndyusoft/grpc-timeouts" xlink:type="simple"><rect fill="#FEEEB7" height="36.2969" rx="2.5" ry="2.5" style="stroke:#181818;stroke-width:0.5;" width="117" x="1301.5" y="152"/><text fill="#000000" font-family="sans-serif" font-size="14" lengthAdjust="spacing" textLength="97" x="1311.5" y="174.9951">grpc-timeouts</text></a></g><!--entity grpc-tools--><g id="elem_grpc-tools"><a href="https://github.com/Byndyusoft/grpc-tools" target="_blank" title="https://github.com/Byndyusoft/grpc-tools" xlink:actuate="onRequest" xlink:href="https://github.com/Byndyusoft/grpc-tools" xlink:show="new" xlink:title="https://github.com/Byndyusoft/grpc-tools" xlink:type="simple"><rect fill="#FEEEB7" height="36.2969" rx="2.5" ry="2.5" style="stroke:#181818;stroke-width:0.5;" width="90" x="1176" y="152"/><text fill="#000000" font-family="sans-serif" font-size="14" lengthAdjust="spacing" textLength="70" x="1186" y="174.9951">grpc-tools</text></a></g><!--reverse link node-typescript-template to nest-template--><g id="link_node-typescript-template_nest-template"><path d="M552.92,397.7 C569.67,427.13 593.77,466.12 609,476 C743.96,563.59 862.09,413.17 966,536 C1004.31,581.29 919.11,615.97 856.59,634.35 " fill="none" id="node-typescript-template-backto-nest-template" style="stroke:#181818;stroke-width:1.0;"/><polygon fill="none" points="546.75,401.01,543.13,380.13,558.98,394.2,546.75,401.01" style="stroke:#181818;stroke-width:1.0;"/></g><!--reverse link class-validator-extended to nest-template--><g id="link_class-validator-extended_nest-template"><path d="M373.39,572.83 C481.52,592.23 650.78,622.59 739.41,638.49 " fill="none" id="class-validator-extended-backto-nest-template" style="stroke:#181818;stroke-width:1.0;stroke-dasharray:7.0,7.0;"/><polygon fill="#181818" points="368.29,571.91,376.4406,577.4388,373.2112,572.7944,377.8556,569.565,368.29,571.91" style="stroke:#181818;stroke-width:1.0;"/></g><!--reverse link nest-dynamic-module to nest-template--><g id="link_nest-dynamic-module_nest-template"><path d="M463.42,477.66 C504.09,490.52 555.63,509.99 597,536 C616.7,548.38 615.8,558.87 635,572 C671.81,597.18 718.15,618.18 752,631.86 " fill="none" id="nest-dynamic-module-backto-nest-template" style="stroke:#181818;stroke-width:1.0;stroke-dasharray:7.0,7.0;"/><polygon fill="#181818" points="458.52,476.13,465.9239,482.6248,463.2939,477.6165,468.3023,474.9865,458.52,476.13" style="stroke:#181818;stroke-width:1.0;"/></g><!--reverse link nest-http-client to nest-template--><g id="link_nest-http-client_nest-template"><path d="M733.87,576.37 C748.7,593.17 769.1,616.27 782.87,631.87 " fill="none" id="nest-http-client-backto-nest-template" style="stroke:#181818;stroke-width:1.0;stroke-dasharray:7.0,7.0;"/><polygon fill="#181818" points="730.22,572.24,733.1918,581.6298,733.5347,575.9833,739.1812,576.3262,730.22,572.24" style="stroke:#181818;stroke-width:1.0;"/></g><!--reverse link nest-opentracing to nest-template--><g id="link_nest-opentracing_nest-template"><path d="M567.11,573.64 C619.13,590.62 695.31,615.48 745.75,631.95 " fill="none" id="nest-opentracing-backto-nest-template" style="stroke:#181818;stroke-width:1.0;stroke-dasharray:7.0,7.0;"/><polygon fill="#181818" points="562.15,572.02,569.4591,578.6213,566.9019,573.5754,571.9478,571.0182,562.15,572.02" style="stroke:#181818;stroke-width:1.0;"/></g><!--reverse link nest-pino to nest-template--><g id="link_nest-pino_nest-template"><path d="M113.55,564.03 C129.01,566.76 146.2,569.66 162,572 C373.8,603.36 626.69,631.09 739.11,642.93 " fill="none" id="nest-pino-backto-nest-template" style="stroke:#181818;stroke-width:1.0;stroke-dasharray:7.0,7.0;"/><polygon fill="#181818" points="108.38,563.11,116.5306,568.6388,113.3012,563.9944,117.9456,560.765,108.38,563.11" style="stroke:#181818;stroke-width:1.0;"/></g><!--reverse link nest-swagger to nest-template--><g id="link_nest-swagger_nest-template"><path d="M964.71,371.71 C1031.32,384.33 1124.09,413.43 1101,476 C1063.99,576.31 933.99,620.53 856.81,638.33 " fill="none" id="nest-swagger-backto-nest-template" style="stroke:#181818;stroke-width:1.0;stroke-dasharray:7.0,7.0;"/><polygon fill="#181818" points="959.56,370.75,967.6765,376.3287,964.4757,371.6645,969.1398,368.4637,959.56,370.75" style="stroke:#181818;stroke-width:1.0;"/></g><!--reverse link node-dto-factory to nest-template--><g id="link_node-dto-factory_nest-template"><path d="M862.13,576.37 C847.3,593.17 826.9,616.27 813.13,631.87 " fill="none" id="node-dto-factory-backto-nest-template" style="stroke:#181818;stroke-width:1.0;stroke-dasharray:7.0,7.0;"/><polygon fill="#181818" points="865.78,572.24,856.8188,576.3262,862.4653,575.9833,862.8082,581.6298,865.78,572.24" style="stroke:#181818;stroke-width:1.0;"/></g><!--reverse link node-pino-logger-factory to nest-template--><g id="link_node-pino-logger-factory_nest-template"><path d="M822.85,474.59 C891.26,487.47 972.94,508.15 994,536 C1035.52,590.9 928.34,623.59 856.59,638.75 " fill="none" id="node-pino-logger-factory-backto-nest-template" style="stroke:#181818;stroke-width:1.0;stroke-dasharray:7.0,7.0;"/><polygon fill="#181818" points="817.53,473.6,825.6465,479.1787,822.4457,474.5145,827.1098,471.3137,817.53,473.6" style="stroke:#181818;stroke-width:1.0;"/></g><!--reverse link node-sonar-coverage-reporter to nest-template--><g id="link_node-sonar-coverage-reporter_nest-template"><path d="M985.95,480.03 C1004.1,503.99 1026.86,543.52 1007,572 C973.38,620.21 906,638.32 856.81,645.07 " fill="none" id="node-sonar-coverage-reporter-backto-nest-template" style="stroke:#181818;stroke-width:1.0;stroke-dasharray:7.0,7.0;"/><polygon fill="#181818" points="982.85,476.03,985.1869,485.5976,985.9068,479.9867,991.5177,480.7067,982.85,476.03" style="stroke:#181818;stroke-width:1.0;"/></g><!--reverse link eslint-config to node-base-template--><g id="link_eslint-config_node-base-template"><path d="M825.93,79.36 C784.36,99.95 719.23,132.22 679.5,151.91 " fill="none" id="eslint-config-backto-node-base-template" style="stroke:#181818;stroke-width:1.0;stroke-dasharray:7.0,7.0;"/><polygon fill="#181818" points="830.62,77.03,820.7791,77.4269,826.1365,79.2432,824.3203,84.6005,830.62,77.03" style="stroke:#181818;stroke-width:1.0;"/></g><!--reverse link node-base-template to node-typescript-template--><g id="link_node-base-template_node-typescript-template"><path d="M629.06,206.78 C618.55,229.4 604,258.98 589,284 C576.16,305.42 559.18,328.55 547.5,343.8 " fill="none" id="node-base-template-backto-node-typescript-template" style="stroke:#181818;stroke-width:1.0;"/><polygon fill="none" points="622.82,203.6,637.47,188.3,635.56,209.4,622.82,203.6" style="stroke:#181818;stroke-width:1.0;"/></g><!--reverse link tsconfig to node-typescript-template--><g id="link_tsconfig_node-typescript-template"><path d="M534,289.66 C534,306.34 534,328.66 534,343.87 " fill="none" id="tsconfig-backto-node-typescript-template" style="stroke:#181818;stroke-width:1.0;stroke-dasharray:7.0,7.0;"/><polygon fill="#181818" points="534,284.24,530,293.24,534,289.24,538,293.24,534,284.24" style="stroke:#181818;stroke-width:1.0;"/></g><!--reverse link node-typescript-template to class-validator-extended--><g id="link_node-typescript-template_class-validator-extended"><path d="M416.66,374.5 C371.83,384.84 324.07,404.15 293,440 C269.68,466.91 269.68,511.43 271.79,535.78 " fill="none" id="node-typescript-template-backto-class-validator-extended" style="stroke:#181818;stroke-width:1.0;"/><polygon fill="none" points="415.31,367.63,436.3,370.47,418.12,381.35,415.31,367.63" style="stroke:#181818;stroke-width:1.0;"/></g><!--reverse link node-typescript-template to nest-dynamic-module--><g id="link_node-typescript-template_nest-dynamic-module"><path d="M492.16,391.29 C468.81,407.08 440.48,426.24 420.45,439.79 " fill="none" id="node-typescript-template-backto-nest-dynamic-module" style="stroke:#181818;stroke-width:1.0;"/><polygon fill="none" points="488.34,385.43,508.83,380.02,496.18,397.03,488.34,385.43" style="stroke:#181818;stroke-width:1.0;"/></g><!--reverse link node-typescript-template to nest-http-client--><g id="link_node-typescript-template_nest-http-client"><path d="M528.29,400.04 C526.64,423.83 528.53,454.24 544,476 C569.09,511.29 614.26,530.7 651.88,541.2 " fill="none" id="node-typescript-template-backto-nest-http-client" style="stroke:#181818;stroke-width:1.0;"/><polygon fill="none" points="521.34,399.2,530.56,380.12,535.25,400.79,521.34,399.2" style="stroke:#181818;stroke-width:1.0;"/></g><!--reverse link nest-dynamic-module to nest-http-client--><g id="link_nest-dynamic-module_nest-http-client"><path d="M457.76,477.44 C515.57,494.42 600.67,519.42 656.94,535.95 " fill="none" id="nest-dynamic-module-backto-nest-http-client" style="stroke:#181818;stroke-width:1.0;stroke-dasharray:7.0,7.0;"/><polygon fill="#181818" points="452.95,476.02,460.4525,482.4006,457.7461,477.4331,462.7136,474.7268,452.95,476.02" style="stroke:#181818;stroke-width:1.0;"/></g><!--reverse link node-typescript-template to nest-kafka--><g id="link_node-typescript-template_nest-kafka"><path d="M416.64,384.52 C368.3,396.46 312.96,414.25 267,440 C253.21,447.73 168.37,521.53 162,536 C155.55,550.64 154.55,557.84 162,572 C176.61,599.77 206.27,619.47 231.4,631.99 " fill="none" id="node-typescript-template-backto-nest-kafka" style="stroke:#181818;stroke-width:1.0;"/><polygon fill="none" points="415.11,377.69,436.19,379.91,418.33,391.31,415.11,377.69" style="stroke:#181818;stroke-width:1.0;"/></g><!--reverse link class-validator-extended to nest-kafka--><g id="link_class-validator-extended_nest-kafka"><path d="M274,577.66 C274,594.34 274,616.66 274,631.87 " fill="none" id="class-validator-extended-backto-nest-kafka" style="stroke:#181818;stroke-width:1.0;stroke-dasharray:7.0,7.0;"/><polygon fill="#181818" points="274,572.24,270,581.24,274,577.24,278,581.24,274,572.24" style="stroke:#181818;stroke-width:1.0;"/></g><!--reverse link nest-dynamic-module to nest-kafka--><g id="link_nest-dynamic-module_nest-kafka"><path d="M398.58,481.22 C401.29,505.28 402.2,543.96 386,572 C370.12,599.48 340.01,619.34 315.01,632 " fill="none" id="nest-dynamic-module-backto-nest-kafka" style="stroke:#181818;stroke-width:1.0;stroke-dasharray:7.0,7.0;"/><polygon fill="#181818" points="397.94,476.02,395.0739,485.4426,398.5532,480.9823,403.0135,484.4615,397.94,476.02" style="stroke:#181818;stroke-width:1.0;"/></g><!--reverse link nest-opentracing to nest-kafka--><g id="link_nest-opentracing_nest-kafka"><path d="M462.42,573.95 C419.82,590.92 357.9,615.58 316.82,631.95 " fill="none" id="nest-opentracing-backto-nest-kafka" style="stroke:#181818;stroke-width:1.0;stroke-dasharray:7.0,7.0;"/><polygon fill="#181818" points="467.26,572.02,457.4192,571.6225,462.6127,573.8646,460.3706,579.0582,467.26,572.02" style="stroke:#181818;stroke-width:1.0;"/></g><!--reverse link nest-pino to nest-kafka--><g id="link_nest-pino_nest-kafka"><path d="M107.82,574.26 C145.53,591.22 199.92,615.68 236.08,631.95 " fill="none" id="nest-pino-backto-nest-kafka" style="stroke:#181818;stroke-width:1.0;stroke-dasharray:7.0,7.0;"/><polygon fill="#181818" points="102.85,572.02,109.4072,579.3687,107.4072,574.0772,112.6987,572.0771,102.85,572.02" style="stroke:#181818;stroke-width:1.0;"/></g><!--reverse link nest-dynamic-module to nest-opentracing--><g id="link_nest-dynamic-module_nest-opentracing"><path d="M419.83,479.3 C440.45,496.15 469.45,519.85 488.94,535.79 " fill="none" id="nest-dynamic-module-backto-nest-opentracing" style="stroke:#181818;stroke-width:1.0;stroke-dasharray:7.0,7.0;"/><polygon fill="#181818" points="415.83,476.02,420.2768,484.8078,419.7049,479.18,425.3327,478.608,415.83,476.02" style="stroke:#181818;stroke-width:1.0;"/></g><!--reverse link node-typescript-template to nest-prometheus--><g id="link_node-typescript-template_nest-prometheus"><path d="M440.96,384.65 C367.75,401.68 267.28,425.06 200.59,440.58 " fill="none" id="node-typescript-template-backto-nest-prometheus" style="stroke:#181818;stroke-width:1.0;"/><polygon fill="none" points="439.77,377.74,460.84,380.02,442.95,391.37,439.77,377.74" style="stroke:#181818;stroke-width:1.0;"/></g><!--reverse link node-typescript-template to node-dto-factory--><g id="link_node-typescript-template_node-dto-factory"><path d="M540.46,400 C546.7,424.91 558.64,456.63 581,476 C598.65,491.29 730.54,521.3 813.46,539 " fill="none" id="node-typescript-template-backto-node-dto-factory" style="stroke:#181818;stroke-width:1.0;"/><polygon fill="none" points="533.59,401.36,536.32,380.34,547.29,398.47,533.59,401.36" style="stroke:#181818;stroke-width:1.0;"/></g><!--reverse link node-typescript-template to node-pino-logger-factory--><g id="link_node-typescript-template_node-pino-logger-factory"><path d="M586.05,389.03 C618.56,405.28 659.48,425.74 687.89,439.95 " fill="none" id="node-typescript-template-backto-node-pino-logger-factory" style="stroke:#181818;stroke-width:1.0;"/><polygon fill="none" points="582.8,395.23,568.05,380.02,589.06,382.71,582.8,395.23" style="stroke:#181818;stroke-width:1.0;"/></g><!--reverse link node-typescript-template to node-sonar-coverage-reporter--><g id="link_node-typescript-template_node-sonar-coverage-reporter"><path d="M632.18,384.27 C709.93,401.1 817.08,424.31 889.26,439.95 " fill="none" id="node-typescript-template-backto-node-sonar-coverage-reporter" style="stroke:#181818;stroke-width:1.0;"/><polygon fill="none" points="630.66,391.1,612.59,380.02,633.62,377.42,630.66,391.1" style="stroke:#181818;stroke-width:1.0;"/></g><!--reverse link node-base-template to tsconfig--><g id="link_node-base-template_tsconfig"><path d="M609.38,201.17 C591.18,216.58 569.69,234.77 554.33,247.79 " fill="none" id="node-base-template-backto-tsconfig" style="stroke:#181818;stroke-width:1.0;"/><polygon fill="none" points="605.11,195.61,624.9,188.02,614.16,206.29,605.11,195.61" style="stroke:#181818;stroke-width:1.0;"/></g><!--reverse link node-base-template to nest-pino--><g id="link_node-base-template_nest-pino"><path d="M544.35,182.67 C403.86,204.97 153.66,267.92 42,440 C22.71,469.73 41.09,512.37 54.27,535.85 " fill="none" id="node-base-template-backto-nest-pino" style="stroke:#181818;stroke-width:1.0;"/><polygon fill="none" points="543.43,175.73,564.26,179.67,545.52,189.57,543.43,175.73" style="stroke:#181818;stroke-width:1.0;"/></g><!--reverse link node-base-template to nest-swagger--><g id="link_node-base-template_nest-swagger"><path d="M641.57,208.5 C641.42,232.72 645.37,263.43 663,284 C708.1,336.63 789.38,353.59 844.49,358.88 " fill="none" id="node-base-template-backto-nest-swagger" style="stroke:#181818;stroke-width:1.0;"/><polygon fill="none" points="634.6,207.8,642.63,188.19,648.58,208.53,634.6,207.8" style="stroke:#181818;stroke-width:1.0;"/></g><!--reverse link node-base-template to node-renovate-config--><g id="link_node-base-template_node-renovate-config"><path d="M682.61,200.46 C702.47,216.02 726.16,234.57 743.03,247.79 " fill="none" id="node-base-template-backto-node-renovate-config" style="stroke:#181818;stroke-width:1.0;"/><polygon fill="none" points="678.16,205.87,666.73,188.02,686.79,194.85,678.16,205.87" style="stroke:#181818;stroke-width:1.0;"/></g><!--reverse link node-base-template to node-reusable-workflows--><g id="link_node-base-template_node-reusable-workflows"><path d="M725.27,193.46 C785.06,210.18 865.46,232.68 920.04,247.95 " fill="none" id="node-base-template-backto-node-reusable-workflows" style="stroke:#181818;stroke-width:1.0;"/><polygon fill="none" points="723.22,200.15,705.85,188.02,726.99,186.67,723.22,200.15" style="stroke:#181818;stroke-width:1.0;"/></g><!--reverse link eslint-config to grpc-timeouts--><g id="link_eslint-config_grpc-timeouts"><path d="M922.35,69.25 C981.69,78.51 1077.11,92.58 1160,101 C1187.47,103.79 1258.22,99.11 1284,109 C1307.86,118.15 1330.18,137.59 1344.37,151.87 " fill="none" id="eslint-config-backto-grpc-timeouts" style="stroke:#181818;stroke-width:1.0;stroke-dasharray:7.0,7.0;"/><polygon fill="#181818" points="917.08,68.42,925.3532,73.7636,922.0199,69.1932,926.5903,65.8599,917.08,68.42" style="stroke:#181818;stroke-width:1.0;"/></g><!--SRC=[ZPRTSjiW48Nl_HJKDsbdIjx1qpgPJjeaapZJtXAqKeWHQ03PzNJoxaMsVW0Xf4kBimVO_NRn9oOehpD0L9Qb5DTLNVBLAfSy0uNMBvg90Z61Icb_2rGf-GxKw3Nwjq9ej_tr-7EpstvU2z066oWhJWoil_XhDXI_4Wr9WJbLeAbYbUTZTO-RRtURMokZd6YD3uIpZ1YfCFmr83B8pcwz2ZHdmc0gHSuAV-byoEmaICaejXUgEKG4RyPKc786maHMzoJVayXtMLcz8jIcAx9gqrQ2UODQ1ulDpIdHDF8vCnBdXDgRdYAh5HCISraKe18gBGLHDXS7KAG0hA2Ioe3obKRtoRAVRnwUxhfJsptEKkURFf9cpulsn_tDqwRTIe6G1riqD_F-Ugt9AmTyb6gVStbiKl4naFRRVcv0iwag5EWnOTRaNMDRMoWKCKmAouassgNb8m8kXuBGKm1kV_T2LHGRLeAiJL2RovAKl3te5V8WNst_xBRttvz3zh-Y5Cylpzj8G8BiU42Sv8JMXpeXz3bE25iu4ee1bGdHcFA4C0vy8c2Q_QQKevdKMerdbVKBPqfd4AcnWyKK1Tq1mv4u760YoctKApG5pN22IQpIZ7Qa-tm5l0VmBNDqA0piN3wNTb0O4-s9Rklpt0uslSpofTlrwaNTEdZFjAeld6e_NzNsNdSt9yW9SQrcqpCyK46Ed9ThliP1GmUzuBRwCgz8pmUUiQcmp7jYF0J-KqDaTe-kLmU_ldkd-h-lXRrJM8Mcu7DnxRmDGhifd8gElDz17iBNVTujVEr7XgE_0mbFxvc-CEw_t94X_Hy0]--></g></svg>